<svg width="253" height="67" viewBox="0 0 253 67" fill="none" xmlns="http://www.w3.org/2000/svg">
<path d="M94.0511 35.5206C94.0511 36.6804 93.9182 37.7799 93.6524 38.8189C93.3866 39.8579 92.9637 40.7761 92.3898 41.5796C91.8159 42.377 91.0669 43.0113 90.1426 43.4704C89.2183 43.9295 88.0947 44.159 86.7718 44.159C85.6542 44.159 84.6575 43.9778 83.7815 43.6214C82.9056 43.259 82.1626 42.7092 81.5524 41.9722C80.9423 41.2353 80.4771 40.2929 80.163 39.1632C79.8489 38.0275 79.6918 36.6985 79.6918 35.1641V23.7227H78.0125V35.4783C78.0125 36.7589 78.1393 37.9369 78.393 39.0062C78.6467 40.0814 79.0213 41.0359 79.5106 41.8756C80.0059 42.7153 80.604 43.4281 81.3229 44.008C82.0357 44.588 82.8512 45.0289 83.7634 45.337C84.6756 45.6451 85.6784 45.7961 86.7718 45.7961C88.3605 45.7961 89.8224 45.4518 91.1635 44.7571C92.3898 44.1228 93.3866 43.1442 94.1719 41.8273V45.3189H95.7304V23.7227H94.0511V35.5206V35.5206Z" fill="white"/>
<path d="M119.102 29.7224C117.698 28.9286 115.776 28.2025 113.345 27.527C111.184 26.9275 109.532 26.4039 108.397 25.9311C107.263 25.4667 106.491 24.9769 106.074 24.4619C105.657 23.9468 105.449 23.322 105.449 22.5789C105.449 21.2954 106.005 20.2653 107.124 19.5054C108.243 18.7454 109.694 18.3908 111.477 18.4414C113.352 18.5005 114.888 18.9987 116.1 19.936C117.312 20.8733 118.022 22.1483 118.246 23.7526L122.892 22.8322C122.707 21.059 122.105 19.5138 121.094 18.1797C120.083 16.8456 118.747 15.8154 117.096 15.0893C115.444 14.3631 113.568 14 111.477 14C109.385 14 107.51 14.3715 105.92 15.1061C104.33 15.8407 103.087 16.8709 102.2 18.1966C101.312 19.5222 100.872 21.0675 100.872 22.8407C100.872 24.293 101.173 25.5258 101.767 26.5306C102.362 27.5354 103.357 28.4136 104.754 29.1735C106.151 29.9334 108.065 30.6596 110.504 31.3689C112.75 32.0359 114.433 32.6101 115.552 33.0745C116.671 33.5389 117.404 34.0371 117.759 34.5691C118.114 35.101 118.292 35.785 118.292 36.6209C118.292 38.0902 117.752 39.2554 116.671 40.1167C115.591 40.9779 114.109 41.4001 112.241 41.4001C110.25 41.4001 108.575 40.9188 107.232 39.9647C105.889 39.0021 105.024 37.7017 104.654 36.0636L100 36.8742C100.479 39.7029 101.767 41.9067 103.874 43.4857C105.982 45.0563 108.675 45.85 111.963 45.85C115.251 45.85 118.107 45.0141 120.059 43.3506C122.02 41.6872 123 39.3989 123 36.4858C123 34.9237 122.699 33.5981 122.105 32.5341C121.51 31.4618 120.507 30.533 119.102 29.7392V29.7224Z" fill="white"/>
<path d="M142.386 34.3811C142.386 35.6195 142.241 36.7068 141.957 37.6432C141.673 38.5795 141.269 39.3467 140.749 39.9508C140.23 40.5549 139.607 41.014 138.882 41.3221C138.158 41.6302 137.348 41.7812 136.454 41.7812C135.318 41.7812 134.376 41.5637 133.627 41.1227C132.872 40.6817 132.274 40.0837 131.827 39.3225C131.38 38.5614 131.066 37.7096 130.878 36.7612C130.691 35.8128 130.6 34.8341 130.6 33.8193V23H127V34.9368C127 35.7524 127.079 36.6222 127.23 37.5586C127.381 38.4889 127.646 39.4071 128.021 40.3012C128.395 41.1952 128.909 42.0107 129.561 42.7417C130.214 43.4726 131.035 44.0646 132.02 44.4996C133.005 44.9406 134.201 45.1581 135.602 45.1581C137.457 45.1581 139.064 44.7533 140.429 43.9499C141.365 43.3941 142.151 42.6632 142.797 41.7812V44.6023H145.974V23H142.398V34.3811H142.386Z" fill="white"/>
<path d="M165.126 23.8926C163.683 22.9019 161.955 22.4005 159.955 22.4005C157.956 22.4005 156.222 22.8959 154.827 23.8926C154.204 24.3336 153.661 24.8592 153.178 25.4451V22.9986H150V54.1938H153.582V42.5711C153.963 42.9758 154.368 43.3564 154.821 43.6887C156.204 44.6975 157.914 45.1989 159.937 45.1989C161.961 45.1989 163.683 44.6975 165.126 43.7008C166.57 42.698 167.682 41.3388 168.455 39.6111C169.228 37.8834 169.615 35.9442 169.615 33.7816C169.615 31.6189 169.228 29.6798 168.455 27.9642C167.682 26.2486 166.57 24.8894 165.126 23.8926V23.8926ZM165.139 37.9317C164.673 39.164 163.967 40.1427 163.03 40.8615C162.094 41.5804 160.916 41.9429 159.502 41.9429C158.089 41.9429 156.856 41.5925 155.92 40.8917C154.99 40.191 154.295 39.2244 153.848 37.9921C153.401 36.7598 153.178 35.3583 153.178 33.7816C153.178 32.2049 153.407 30.7913 153.86 29.565C154.313 28.3387 155.002 27.3843 155.92 26.6956C156.838 26.0069 157.998 25.6686 159.4 25.6686C160.801 25.6686 162.07 26.0311 163.018 26.75C163.967 27.4688 164.673 28.4414 165.139 29.6677C165.604 30.894 165.839 32.2653 165.839 33.7876C165.839 35.3099 165.604 36.7054 165.139 37.9377V37.9317Z" fill="white"/>
<path d="M189.127 23.8926C187.683 22.9019 185.955 22.4005 183.956 22.4005C181.956 22.4005 180.217 22.8959 178.827 23.8926C178.205 24.3336 177.661 24.8592 177.178 25.4451V22.9986H174V54.1938H177.583V42.5651C177.963 42.9698 178.368 43.3504 178.821 43.6826C180.205 44.6915 181.914 45.1929 183.938 45.1929C185.961 45.1929 187.683 44.6915 189.127 43.6947C190.571 42.6919 191.682 41.3327 192.455 39.605C193.229 37.8773 193.615 35.9382 193.615 33.7755C193.615 31.6129 193.229 29.6738 192.455 27.9581C191.682 26.2365 190.571 24.8833 189.127 23.8866V23.8926ZM189.139 37.9317C188.674 39.164 187.967 40.1427 187.031 40.8615C186.094 41.5804 184.916 41.9429 183.503 41.9429C182.089 41.9429 180.857 41.5925 179.921 40.8917C178.99 40.191 178.296 39.2244 177.849 37.9921C177.402 36.7598 177.178 35.3583 177.178 33.7816C177.178 32.2049 177.408 30.7913 177.861 29.565C178.314 28.3387 179.002 27.3843 179.921 26.6956C180.839 26.0069 181.999 25.6686 183.4 25.6686C184.802 25.6686 186.07 26.0311 187.019 26.75C187.967 27.4688 188.674 28.4414 189.139 29.6677C189.604 30.894 189.84 32.2653 189.84 33.7876C189.84 35.3099 189.604 36.7054 189.139 37.9377V37.9317Z" fill="white"/>
<path d="M213.789 23.8624C212.231 22.8898 210.37 22.4005 208.207 22.4005C206.045 22.4005 204.269 22.8777 202.71 23.8322C201.152 24.7867 199.943 26.1217 199.092 27.8313C198.24 29.5469 197.811 31.5283 197.811 33.7816C197.811 36.0348 198.234 37.9981 199.074 39.7138C199.913 41.4294 201.109 42.7705 202.662 43.743C204.214 44.7156 206.063 45.2049 208.213 45.2049C210.364 45.2049 212.213 44.7217 213.771 43.7551C215.33 42.7886 216.532 41.4475 217.372 39.7379C218.211 38.0223 218.628 36.0409 218.628 33.7876C218.628 31.5344 218.211 29.5952 217.378 27.8857C216.544 26.1821 215.348 24.841 213.789 23.8685V23.8624ZM213.197 39.5809C212.098 41.073 210.437 41.822 208.207 41.822C205.978 41.822 204.39 41.0911 203.266 39.6231C202.148 38.1552 201.587 36.21 201.587 33.7816C201.587 32.2109 201.828 30.8215 202.305 29.6194C202.783 28.4173 203.514 27.4809 204.486 26.7983C205.459 26.1157 206.697 25.7774 208.207 25.7774C210.418 25.7774 212.08 26.5023 213.185 27.9581C214.291 29.414 214.846 31.3531 214.846 33.7755C214.846 36.1979 214.297 38.0827 213.197 39.5748V39.5809Z" fill="white"/>
<path d="M232.111 22.8717C231.381 22.9201 230.656 23.059 229.949 23.2946C229.242 23.5302 228.608 23.8685 228.052 24.3216C227.545 24.684 227.091 25.1431 226.681 25.6989C226.506 25.9345 226.354 26.1882 226.21 26.448V22.9986H223.032V44.5949H226.614V33.7575C226.614 32.9057 226.687 32.066 226.832 31.2505C226.977 30.435 227.242 29.6678 227.623 28.9731C228.004 28.2723 228.541 27.6682 229.236 27.1608C229.997 26.6171 230.825 26.2969 231.713 26.2003C232.601 26.1036 233.428 26.152 234.171 26.3392V22.9986C233.531 22.8657 232.842 22.8234 232.111 22.8717V22.8717Z" fill="white"/>
<path d="M252.029 25.9405V22.9986H245.51V17H241.952V22.9986H237.573V25.9405H241.952V36.4396C241.952 37.5451 241.971 38.5358 242.001 39.4118C242.031 40.2877 242.267 41.1516 242.689 42.0033C243.185 42.988 243.922 43.7129 244.9 44.172C245.879 44.6311 246.991 44.8848 248.241 44.9332C249.491 44.9815 250.748 44.8728 252.029 44.6009V41.5442C250.549 41.7738 249.286 41.81 248.241 41.665C247.196 41.52 246.429 41.0187 245.951 40.1669C245.698 39.7138 245.559 39.1762 245.541 38.5479C245.523 37.9197 245.51 37.1706 245.51 36.2886V25.9526H252.029V25.9405Z" fill="white"/>
<path d="M58.6149 0H7.83506C3.50788 0 0 3.50788 0 7.83506V58.6149C0 62.9421 3.50788 66.45 7.83506 66.45H58.6149C62.9421 66.45 66.45 62.9421 66.45 58.6149V7.83506C66.45 3.50788 62.9421 0 58.6149 0Z" fill="url(#paint0_linear_8515_7507)"/>
<path d="M53.5103 24.6953C52.2296 34.5843 43.3434 42.957 33.2249 43.0476C22.6835 43.4946 13.1812 35.2669 11.23 24.9671C10.9702 23.7287 11.7676 22.5085 13.012 22.2548C14.3169 21.9829 15.5976 22.9193 15.7365 24.2422C15.966 26.3505 16.5581 28.4346 17.5004 30.3737C24.1213 43.8389 42.7333 43.9718 50.0911 30.996C51.2268 28.9964 52.0182 26.7915 52.4229 24.5141C52.5438 23.8194 53.607 23.9764 53.5103 24.6892V24.6953Z" fill="white"/>
<defs>
<linearGradient id="paint0_linear_8515_7507" x1="16.6427" y1="13.0182" x2="60.3064" y2="66.2325" gradientUnits="userSpaceOnUse">
<stop stop-color="#54CFD9"/>
<stop offset="0.44" stop-color="#6A8DEA"/>
<stop offset="0.82" stop-color="#7A5CF7"/>
<stop offset="1" stop-color="#814AFD"/>
</linearGradient>
</defs>
</svg>
