<svg width="316" height="316" viewBox="0 0 316 316" fill="none" xmlns="http://www.w3.org/2000/svg">
<path d="M202.771 43.6747H113.248C105.62 43.6747 99.4353 49.8579 99.4353 57.4853V146.993C99.4353 154.621 105.62 160.804 113.248 160.804H202.771C210.4 160.804 216.584 154.621 216.584 146.993V57.4853C216.584 49.8579 210.4 43.6747 202.771 43.6747Z" fill="url(#paint0_linear_8515_11213)"/>
<path d="M193.772 87.2042C191.515 104.635 175.848 119.393 158.01 119.553C139.426 120.341 122.673 105.838 119.233 87.6834C118.776 85.5005 120.181 83.3496 122.375 82.9024C124.676 82.4232 126.933 84.0737 127.178 86.4056C127.583 90.1218 128.627 93.7954 130.288 97.2134C141.96 120.948 174.773 121.182 187.744 98.3102C189.747 94.7857 191.142 90.8991 191.855 86.8848C192.068 85.6602 193.943 85.9371 193.772 87.1936V87.2042Z" fill="white"/>
<path d="M28.7972 217.948C28.7972 220.03 28.5586 222.004 28.0813 223.869C27.6041 225.735 26.8448 227.383 25.8144 228.825C24.784 230.257 23.4391 231.395 21.7796 232.22C20.1201 233.044 18.1026 233.456 15.7273 233.456C13.7207 233.456 11.931 233.131 10.3583 232.491C8.78559 231.84 7.45148 230.853 6.35599 229.53C5.2605 228.207 4.42533 226.515 3.86132 224.487C3.2973 222.449 3.0153 220.063 3.0153 217.308V196.769H0V217.872C0 220.171 0.22778 222.286 0.683329 224.206C1.13888 226.136 1.81134 227.849 2.6899 229.357C3.57931 230.864 4.6531 232.144 5.94382 233.185C7.2237 234.226 8.68797 235.018 10.3258 235.571C11.9636 236.124 13.7641 236.395 15.7273 236.395C18.5799 236.395 21.2047 235.777 23.6126 234.53C25.8144 233.391 27.6041 231.634 29.0141 229.27V235.538H31.8125V196.769H28.7972V217.948V217.948Z" fill="#33393A"/>
<path d="M77.1483 206.732C74.5637 205.231 71.0275 203.858 66.5541 202.58C62.5777 201.446 59.5387 200.456 57.4511 199.562C55.3635 198.684 53.9433 197.758 53.1764 196.784C52.4096 195.81 52.0261 194.628 52.0261 193.223C52.0261 190.796 53.0486 188.848 55.1078 187.411C57.167 185.974 59.8369 185.303 63.1174 185.399C66.5683 185.511 69.3944 186.453 71.624 188.225C73.8536 189.998 75.1601 192.409 75.572 195.443L84.1212 193.702C83.7804 190.349 82.6726 187.427 80.8123 184.904C78.9519 182.381 76.495 180.433 73.456 179.06C70.4169 177.687 66.9659 177 63.1174 177C59.2688 177 55.8179 177.703 52.8924 179.092C49.967 180.481 47.6805 182.429 46.0474 184.936C44.4142 187.443 43.6048 190.365 43.6048 193.718C43.6048 196.465 44.1586 198.796 45.2521 200.696C46.3456 202.596 48.1776 204.257 50.748 205.694C53.3185 207.131 56.8404 208.504 61.328 209.845C65.4606 211.107 68.5565 212.193 70.6157 213.071C72.6749 213.949 74.024 214.891 74.6773 215.897C75.3305 216.903 75.6572 218.197 75.6572 219.777C75.6572 222.556 74.6631 224.759 72.6749 226.388C70.6867 228.017 67.9601 228.815 64.5233 228.815C60.8594 228.815 57.7777 227.905 55.3066 226.101C52.8356 224.28 51.2451 221.821 50.5634 218.723L42 220.256C42.8805 225.606 45.2521 229.773 49.1291 232.759C53.006 235.729 57.9623 237.23 64.0121 237.23C70.0618 237.23 75.3164 235.649 78.9093 232.504C82.5164 229.358 84.32 225.031 84.32 219.522C84.32 216.568 83.7661 214.061 82.6726 212.049C81.5791 210.021 79.733 208.265 77.1483 206.764V206.732Z" fill="#33393A"/>
<path d="M121.626 217.2C121.626 219.423 121.365 221.375 120.856 223.056C120.346 224.737 119.619 226.114 118.686 227.199C117.754 228.283 116.636 229.107 115.335 229.66C114.033 230.213 112.58 230.485 110.975 230.485C108.935 230.485 107.243 230.094 105.899 229.302C104.543 228.511 103.469 227.437 102.666 226.071C101.864 224.704 101.3 223.175 100.963 221.473C100.627 219.77 100.464 218.013 100.464 216.191V196.769H94V218.198C94 219.662 94.141 221.223 94.4122 222.904C94.6833 224.574 95.1606 226.223 95.833 227.828C96.5055 229.433 97.4275 230.897 98.5989 232.209C99.7703 233.521 101.245 234.584 103.013 235.365C104.781 236.156 106.929 236.547 109.445 236.547C112.775 236.547 115.66 235.82 118.112 234.378C119.793 233.38 121.203 232.068 122.363 230.485V235.549H128.069V196.769H121.647V217.2H121.626Z" fill="#33393A"/>
<path d="M165.228 198.374C162.636 196.595 159.534 195.695 155.944 195.695C152.354 195.695 149.241 196.584 146.735 198.374C145.618 199.165 144.642 200.109 143.774 201.161V196.769H138.069V252.77H144.501V231.905C145.184 232.632 145.911 233.315 146.724 233.911C149.208 235.722 152.278 236.623 155.911 236.623C159.545 236.623 162.636 235.722 165.228 233.933C167.821 232.133 169.816 229.693 171.205 226.591C172.593 223.49 173.287 220.009 173.287 216.126C173.287 212.244 172.593 208.763 171.205 205.683C169.816 202.603 167.821 200.163 165.228 198.374V198.374ZM165.25 223.577C164.415 225.789 163.146 227.546 161.465 228.836C159.783 230.127 157.668 230.777 155.13 230.777C152.592 230.777 150.379 230.148 148.698 228.89C147.028 227.632 145.781 225.897 144.978 223.685C144.175 221.473 143.774 218.957 143.774 216.126C143.774 213.296 144.186 210.758 145 208.557C145.813 206.355 147.05 204.642 148.698 203.406C150.347 202.169 152.429 201.562 154.946 201.562C157.462 201.562 159.74 202.213 161.443 203.503C163.146 204.794 164.415 206.54 165.25 208.741C166.085 210.943 166.508 213.404 166.508 216.137C166.508 218.87 166.085 221.375 165.25 223.587V223.577Z" fill="#33393A"/>
<path d="M208.321 198.374C205.729 196.595 202.627 195.695 199.036 195.695C195.446 195.695 192.323 196.584 189.828 198.374C188.711 199.165 187.735 200.109 186.867 201.161V196.769H181.162V252.77H187.594V231.894C188.277 232.621 189.004 233.304 189.817 233.901C192.301 235.712 195.37 236.612 199.004 236.612C202.638 236.612 205.729 235.712 208.321 233.922C210.913 232.122 212.909 229.682 214.297 226.58C215.686 223.479 216.38 219.998 216.38 216.115C216.38 212.233 215.686 208.752 214.297 205.672C212.909 202.581 210.913 200.152 208.321 198.363V198.374ZM208.343 223.577C207.508 225.789 206.239 227.546 204.557 228.836C202.876 230.127 200.761 230.777 198.223 230.777C195.685 230.777 193.472 230.148 191.791 228.89C190.121 227.632 188.873 225.897 188.071 223.685C187.268 221.473 186.867 218.957 186.867 216.126C186.867 213.296 187.279 210.758 188.092 208.557C188.906 206.355 190.142 204.642 191.791 203.406C193.44 202.169 195.522 201.562 198.039 201.562C200.555 201.562 202.833 202.213 204.536 203.503C206.239 204.794 207.508 206.54 208.343 208.741C209.178 210.943 209.601 213.404 209.601 216.137C209.601 218.87 209.178 221.375 208.343 223.587V223.577Z" fill="#33393A"/>
<path d="M250.806 198.32C248.008 196.574 244.667 195.695 240.784 195.695C236.901 195.695 233.712 196.552 230.914 198.265C228.116 199.979 225.946 202.375 224.417 205.444C222.888 208.524 222.117 212.081 222.117 216.126C222.117 220.171 222.877 223.696 224.384 226.776C225.892 229.856 228.04 232.263 230.827 234.009C233.615 235.755 236.934 236.633 240.795 236.633C244.656 236.633 247.975 235.766 250.774 234.031C253.572 232.296 255.73 229.888 257.238 226.819C258.746 223.739 259.494 220.182 259.494 216.137C259.494 212.092 258.746 208.611 257.249 205.542C255.752 202.484 253.605 200.076 250.806 198.33V198.32ZM249.743 226.537C247.769 229.216 244.786 230.56 240.784 230.56C236.782 230.56 233.929 229.248 231.912 226.613C229.905 223.978 228.896 220.486 228.896 216.126C228.896 213.307 229.33 210.812 230.187 208.654C231.044 206.496 232.356 204.815 234.103 203.59C235.849 202.365 238.072 201.757 240.784 201.757C244.754 201.757 247.737 203.059 249.722 205.672C251.706 208.286 252.704 211.767 252.704 216.115C252.704 220.464 251.717 223.848 249.743 226.526V226.537Z" fill="#33393A"/>
<path d="M283.704 196.541C282.391 196.628 281.09 196.877 279.821 197.3C278.551 197.723 277.413 198.33 276.415 199.144C275.504 199.794 274.69 200.618 273.953 201.616C273.638 202.039 273.367 202.495 273.107 202.961V196.769H267.401V235.538H273.833V216.083C273.833 214.554 273.963 213.046 274.224 211.582C274.484 210.118 274.961 208.741 275.645 207.494C276.328 206.236 277.293 205.152 278.541 204.241C279.907 203.265 281.393 202.69 282.988 202.516C284.582 202.343 286.068 202.43 287.402 202.766V196.769C286.252 196.53 285.016 196.454 283.704 196.541V196.541Z" fill="#33393A"/>
<path d="M315.874 202.05V196.769H304.171V186H297.782V196.769H289.918V202.05H297.782V220.898C297.782 222.882 297.815 224.661 297.869 226.233C297.923 227.806 298.346 229.357 299.105 230.886C299.995 232.653 301.318 233.955 303.075 234.779C304.832 235.603 306.828 236.058 309.073 236.145C311.318 236.232 313.574 236.037 315.874 235.549V230.061C313.217 230.474 310.95 230.539 309.073 230.278C307.197 230.018 305.819 229.118 304.962 227.589C304.507 226.776 304.257 225.81 304.225 224.683C304.192 223.555 304.171 222.21 304.171 220.627V202.072H315.874V202.05Z" fill="#33393A"/>
<defs>
<linearGradient id="paint0_linear_8515_11213" x1="128.776" y1="66.6214" x2="205.738" y2="160.433" gradientUnits="userSpaceOnUse">
<stop stop-color="#54CFD9"/>
<stop offset="0.44" stop-color="#6A8DEA"/>
<stop offset="0.82" stop-color="#7A5CF7"/>
<stop offset="1" stop-color="#814AFD"/>
</linearGradient>
</defs>
</svg>
