<!--
  IMPORTANT:
  1. Ensure each SVG element has a unique ID.
  2. Ensure each SVG element has a `viewBox` attribute.
  3. Remove the `width` and `height` attributes from each SVG element.
 -->

<svg width="0" height="0" class="hidden">

  <svg id="icon-filter" viewBox="0 0 24 24" fill="none"
    xmlns="http://www.w3.org/2000/svg">
    <g clip-path="url(#clip0_1_564)">
      <path d="M21 4V6H20L15 13.5V22H9V13.5L4 6H3V4H21ZM6.404 6L11 12.894V20H13V12.894L17.596 6H6.404Z" fill="#373737"/>
    </g>
    <defs>
      <clipPath id="clip0_1_564">
        <rect width="24" height="24" fill="white"/>
      </clipPath>
    </defs>
  </svg>

  <svg id="icon-phone-emergency" viewBox="0 0 24 24" fill="none"
    xmlns="http://www.w3.org/2000/svg">
    <g clip-path="url(#clip0_1_565)">
      <path d="M16.0225 4.57833L19.9678 11.6816C20.0391 11.81 20.0756 11.9547 20.0738 12.1015C20.072 12.2484 20.0319 12.3922 19.9575 12.5187C19.8831 12.6453 19.7769 12.7503 19.6495 12.8233C19.5221 12.8962 19.3778 12.9347 19.231 12.9348H10.8418C10.6948 12.935 10.5502 12.8967 10.4225 12.8237C10.2947 12.7508 10.1883 12.6457 10.1137 12.5189C10.0391 12.3922 9.99898 12.2481 9.99725 12.101C9.99551 11.9539 10.0323 11.809 10.1038 11.6805L14.056 4.57833C14.1534 4.40304 14.296 4.25699 14.4689 4.1553C14.6417 4.05362 14.8387 4 15.0392 4C15.2398 4 15.4367 4.05362 15.6096 4.1553C15.7825 4.25699 15.925 4.40304 16.0225 4.57833ZM15.0325 11.8098C15.1817 11.8098 15.3247 11.7506 15.4302 11.6451C15.5357 11.5396 15.595 11.3965 15.595 11.2473C15.595 11.0981 15.5357 10.9551 15.4302 10.8496C15.3247 10.7441 15.1817 10.6848 15.0325 10.6848C14.8833 10.6848 14.7402 10.7441 14.6347 10.8496C14.5292 10.9551 14.47 11.0981 14.47 11.2473C14.47 11.3965 14.5292 11.5396 14.6347 11.6451C14.7402 11.7506 14.8833 11.8098 15.0325 11.8098ZM14.47 6.18483V8.99733C14.47 9.14652 14.5292 9.28959 14.6347 9.39508C14.7402 9.50057 14.8833 9.55983 15.0325 9.55983C15.1817 9.55983 15.3247 9.50057 15.4302 9.39508C15.5357 9.28959 15.595 9.14652 15.595 8.99733V6.18483C15.595 6.03565 15.5357 5.89257 15.4302 5.78709C15.3247 5.6816 15.1817 5.62233 15.0325 5.62233C14.8833 5.62233 14.7402 5.6816 14.6347 5.78709C14.5292 5.89257 14.47 6.03565 14.47 6.18483ZM7.46235 6.69783C5.93797 7.16358 4.9401 8.43708 5.15497 9.85008C5.42212 11.5898 6.01525 13.2635 6.90322 14.7832C7.78405 16.3041 8.93725 17.6499 10.3052 18.7533C11.4212 19.65 13.0255 19.4283 14.1921 18.3393C14.3973 18.1479 14.522 17.8855 14.5406 17.6054C14.5592 17.3253 14.4704 17.0487 14.2922 16.8318L13.4012 15.7496C13.2587 15.5766 13.0678 15.4501 12.8529 15.3864C12.638 15.3227 12.409 15.3245 12.1952 15.3918L10.3131 15.9836C10.2204 16.0128 10.1217 16.0174 10.0267 15.9971C9.93167 15.9768 9.84352 15.9322 9.77085 15.8677L9.72585 15.8272C9.56176 15.6717 9.40413 15.5096 9.25335 15.3412C8.87957 14.9285 8.54933 14.4784 8.26785 13.998C7.87986 13.3167 7.59192 12.5832 7.41285 11.82L7.39935 11.7615C7.37974 11.6661 7.38518 11.5672 7.41515 11.4745C7.44512 11.3819 7.49859 11.2986 7.57035 11.2327L9.02385 9.89958C9.18903 9.74794 9.30514 9.5504 9.35726 9.33231C9.40937 9.11422 9.39513 8.88552 9.31635 8.67558L8.8281 7.37058C8.7288 7.10571 8.53225 6.88866 8.27849 6.76367C8.02473 6.63867 7.73286 6.61513 7.46235 6.69783ZM9.78547 10.7287L8.57947 11.8357C8.73774 12.393 8.9605 12.9298 9.24322 13.4355C9.5364 13.9352 9.89007 14.397 10.2962 14.8102L11.8588 14.3186C12.2864 14.184 12.7445 14.1802 13.1742 14.3077C13.6039 14.4352 13.9858 14.6881 14.2708 15.0341L15.1618 16.1163C15.5223 16.5544 15.7022 17.1134 15.6648 17.6795C15.6274 18.2456 15.3755 18.776 14.9605 19.1628C13.5092 20.5151 11.275 20.9741 9.60097 19.6297C8.12545 18.4401 6.88148 16.989 5.93122 15.3491C4.97218 13.7069 4.33172 11.8985 4.04347 10.0188C3.7206 7.89821 5.24047 6.20058 7.13385 5.62233C7.67816 5.45581 8.26548 5.5031 8.77614 5.75456C9.2868 6.00603 9.68236 6.44274 9.88222 6.97571L10.3705 8.28071C10.528 8.70059 10.5565 9.15797 10.4523 9.59416C10.3481 10.0303 10.1158 10.4254 9.78547 10.7287Z" fill="#373737"/>
    </g>
    <defs>
      <clipPath id="clip0_1_565">
        <rect width="24" height="24" fill="white"/>
      </clipPath>
    </defs>
  </svg>

  <svg id="icon-comment"
    xmlns="http://www.w3.org/2000/svg" viewBox="0 0 24 24" fill="none">
    <g clip-path="url(#clip0_1_570)">
      <path d="M7.00081 3.66669C4.23939 3.66669 2.00081 5.90526 2.00081 8.66669V12C2.00081 12.2003 2.01259 12.3979 2.03549 12.592C2.01241 12.6684 2 12.7494 2 12.8334V20.1882C2 20.9001 2.8351 21.2842 3.37566 20.8209L7.2716 17.4815C7.63409 17.1708 8.09576 17 8.57318 17H17.0008C19.7622 17 22.0008 14.7614 22.0008 12V8.66669C22.0008 5.90526 19.7622 3.66669 17.0008 3.66669H7.00081Z" stroke="#373737" stroke-width="2"/>
    </g>
    <defs>
      <clipPath id="clip0_1_570">
        <rect width="24" height="24" fill="white"/>
      </clipPath>
    </defs>
  </svg>

  <svg id="icon-info"
    xmlns="http://www.w3.org/2000/svg" viewBox="0 0 24 24" fill="none">
    <g clip-path="url(#clip0_1_572)">
      <path d="M12 22C6.477 22 2 17.523 2 12C2 6.477 6.477 2 12 2C17.523 2 22 6.477 22 12C22 17.523 17.523 22 12 22ZM12 20C14.1217 20 16.1566 19.1571 17.6569 17.6569C19.1571 16.1566 20 14.1217 20 12C20 9.87827 19.1571 7.84344 17.6569 6.34315C16.1566 4.84285 14.1217 4 12 4C9.87827 4 7.84344 4.84285 6.34315 6.34315C4.84285 7.84344 4 9.87827 4 12C4 14.1217 4.84285 16.1566 6.34315 17.6569C7.84344 19.1571 9.87827 20 12 20ZM11 15H13V17H11V15ZM13 13.355V14H11V12.5C11 12.2348 11.1054 11.9804 11.2929 11.7929C11.4804 11.6054 11.7348 11.5 12 11.5C12.2841 11.5 12.5623 11.4193 12.8023 11.2673C13.0423 11.1154 13.2343 10.8984 13.3558 10.6416C13.4773 10.3848 13.5234 10.0988 13.4887 9.81684C13.454 9.53489 13.34 9.26858 13.1598 9.04891C12.9797 8.82924 12.7409 8.66523 12.4712 8.57597C12.2015 8.48671 11.912 8.47587 11.6364 8.54471C11.3608 8.61354 11.1104 8.75923 10.9144 8.96482C10.7183 9.1704 10.5847 9.42743 10.529 9.706L8.567 9.313C8.68863 8.70508 8.96951 8.14037 9.38092 7.67659C9.79233 7.2128 10.3195 6.86658 10.9086 6.67332C11.4977 6.48006 12.1275 6.44669 12.7337 6.57661C13.3399 6.70654 13.9007 6.99511 14.3588 7.41282C14.8169 7.83054 15.1559 8.36241 15.3411 8.95406C15.5263 9.54572 15.5511 10.1759 15.4129 10.7803C15.2747 11.3847 14.9785 11.9415 14.5545 12.3939C14.1306 12.8462 13.5941 13.1779 13 13.355Z" fill="#373737"/>
    </g>
    <defs>
      <clipPath id="clip0_1_572">
        <rect width="24" height="24" fill="white"/>
      </clipPath>
    </defs>
  </svg>

  <svg id="icon-fingerprint"
    xmlns="http://www.w3.org/2000/svg" viewBox="0 0 24 24" fill="none">
    <g clip-path="url(#clip0_1_566)">
      <path d="M17.0006 13V14C17.0006 16.77 16.3366 19.445 15.0856 21.846L14.8586 22.266L13.1116 21.292C14.2716 19.212 14.9216 16.882 14.9936 14.456L15.0006 14V13H17.0006ZM11.0006 10H13.0006V14L12.9956 14.379C12.92 17.1167 11.9778 19.7598 10.3046 21.928L10.0736 22.218L8.52361 20.954C10.05 19.0899 10.9186 16.7741 10.9946 14.366L11.0006 14V10ZM12.0006 6.00001C13.3267 6.00001 14.5985 6.52679 15.5361 7.46448C16.4738 8.40216 17.0006 9.67393 17.0006 11H15.0006C15.0006 10.2044 14.6845 9.4413 14.1219 8.87869C13.5593 8.31608 12.7963 8.00001 12.0006 8.00001C11.205 8.00001 10.4419 8.31608 9.87929 8.87869C9.31668 9.4413 9.00061 10.2044 9.00061 11V14C9.00061 16.235 8.18061 18.344 6.72961 19.977L6.51761 20.207L5.06961 18.827C6.23957 17.6029 6.92385 15.9948 6.99461 14.303L7.00061 14V11C7.00061 9.67393 7.52739 8.40216 8.46508 7.46448C9.40276 6.52679 10.6745 6.00001 12.0006 6.00001V6.00001ZM12.0006 2.00001C14.3876 2.00001 16.6767 2.94822 18.3646 4.63605C20.0524 6.32388 21.0006 8.61306 21.0006 11V14C21.0006 15.698 20.7986 17.37 20.4036 18.99L20.2646 19.529L18.3346 19.003C18.7266 17.566 18.9476 16.081 18.9926 14.568L19.0006 14V11C19.0006 9.70087 18.6391 8.42737 17.9565 7.32201C17.2739 6.21666 16.2971 5.32307 15.1356 4.74125C13.974 4.15943 12.6734 3.91233 11.3794 4.02762C10.0854 4.1429 8.84903 4.61601 7.80861 5.39401L6.38361 3.96801C7.97708 2.69129 9.95876 1.99698 12.0006 2.00001V2.00001ZM4.96861 5.38301L6.39461 6.80801C5.53694 7.95124 5.05167 9.3306 5.00461 10.759L5.00061 11L5.00461 13C5.00461 14.12 4.74061 15.203 4.24261 16.177L4.08661 16.467L2.34961 15.475C2.72961 14.81 2.95161 14.068 2.99561 13.292L3.00461 13V11C2.99868 8.95834 3.69176 6.97615 4.96861 5.38301V5.38301Z" fill="#373737"/>
    </g>
    <defs>
      <clipPath id="clip0_1_566">
        <rect width="24" height="24" fill="white"/>
      </clipPath>
    </defs>
  </svg>

  <svg id="icon-star"
    xmlns="http://www.w3.org/2000/svg" viewBox="0 0 24 24" fill="none">
    <g clip-path="url(#clip0_1_568)">
      <path d="M11.3082 1.65834C11.5648 1.04357 12.4358 1.04357 12.6924 1.65834L14.894 6.93223C14.9966 7.17792 15.2217 7.35082 15.4855 7.38653L21.2879 8.17186C21.9381 8.25985 22.1698 9.08134 21.6615 9.49616L17.1812 13.1522C16.9597 13.3329 16.8603 13.6238 16.9247 13.9024L18.3571 20.0922C18.5122 20.7624 17.7586 21.2704 17.1956 20.8752L12.4312 17.5313C12.1726 17.3498 11.828 17.3498 11.5694 17.5313L6.80501 20.8752C6.24198 21.2704 5.48839 20.7624 5.64346 20.0923L7.07577 13.9023C7.14021 13.6238 7.04073 13.3329 6.81926 13.1522L2.33911 9.49616C1.83079 9.08134 2.06253 8.25986 2.71271 8.17186L8.5151 7.38653C8.77893 7.35082 9.00406 7.17792 9.10663 6.93223L11.3082 1.65834Z" stroke="#373737" stroke-width="2" stroke-miterlimit="3.3292" stroke-linecap="round" stroke-linejoin="round"/>
    </g>
    <defs>
      <clipPath id="clip0_1_568">
        <rect width="24" height="24" fill="white"/>
      </clipPath>
    </defs>
  </svg>

  <svg id="icon-document"
    xmlns="http://www.w3.org/2000/svg" viewBox="0 0 24 24" fill="none">
    <g clip-path="url(#clip0_1_571)">
      <path d="M20 22H4C3.73478 22 3.48043 21.8946 3.29289 21.7071C3.10536 21.5196 3 21.2652 3 21V3C3 2.73478 3.10536 2.48043 3.29289 2.29289C3.48043 2.10536 3.73478 2 4 2H20C20.2652 2 20.5196 2.10536 20.7071 2.29289C20.8946 2.48043 21 2.73478 21 3V21C21 21.2652 20.8946 21.5196 20.7071 21.7071C20.5196 21.8946 20.2652 22 20 22ZM19 20V4H5V20H19ZM8 7H16V9H8V7ZM8 11H16V13H8V11ZM8 15H13V17H8V15Z" fill="#373737"/>
    </g>
    <defs>
      <clipPath id="clip0_1_571">
        <rect width="24" height="24" fill="white"/>
      </clipPath>
    </defs>
  </svg>

  <svg id="icon-notifications"
    xmlns="http://www.w3.org/2000/svg" viewBox="0 0 24 24" fill="none">
    <g clip-path="url(#clip0_1_567)">
      <path d="M5 18.3721H19V11.241C19 7.26772 15.866 4.04651 12 4.04651C8.134 4.04651 5 7.26772 5 11.241V18.3721ZM12 2C16.97 2 21 6.13702 21 11.241V20.4186H3V11.241C3 6.13702 7.03 2 12 2ZM9.5 21.4419H14.5C14.5 22.1203 14.2366 22.771 13.7678 23.2507C13.2989 23.7305 12.663 24 12 24C11.337 24 10.7011 23.7305 10.2322 23.2507C9.76339 22.771 9.5 22.1203 9.5 21.4419Z" fill="#373737"/>
    </g>
    <defs>
      <clipPath id="clip0_1_567">
        <rect width="24" height="24" fill="white"/>
      </clipPath>
    </defs>
  </svg>

  <svg id="icon-share"
    xmlns="http://www.w3.org/2000/svg" viewBox="0 0 24 24" fill="none">
    <g clip-path="url(#clip0_1_569)">
      <path d="M13.1202 17.0247L8.92121 14.7347C8.373 15.3207 7.66119 15.7284 6.87828 15.9046C6.09537 16.0808 5.27756 16.0174 4.53113 15.7227C3.7847 15.428 3.14417 14.9156 2.69277 14.2521C2.24138 13.5886 2 12.8047 2 12.0022C2 11.1997 2.24138 10.4157 2.69277 9.75222C3.14417 9.08872 3.7847 8.57632 4.53113 8.28163C5.27756 7.98694 6.09537 7.92358 6.87828 8.09978C7.66119 8.27599 8.373 8.6836 8.92121 9.26967L13.1212 6.97967C12.8828 6.03574 12.9968 5.03726 13.4418 4.17137C13.8869 3.30549 14.6325 2.63165 15.5389 2.27617C16.4452 1.92069 17.4501 1.90797 18.3652 2.2404C19.2803 2.57283 20.0427 3.22758 20.5095 4.08193C20.9764 4.93627 21.1156 5.93156 20.9011 6.88121C20.6866 7.83087 20.1332 8.6697 19.3444 9.24048C18.5557 9.81125 17.5859 10.0748 16.6168 9.98166C15.6477 9.88855 14.7458 9.44518 14.0802 8.73467L9.88021 11.0247C10.0414 11.666 10.0414 12.3373 9.88021 12.9787L14.0792 15.2687C14.7448 14.5582 15.6467 14.1148 16.6158 14.0217C17.5849 13.9286 18.5547 14.1921 19.3434 14.7629C20.1322 15.3336 20.6856 16.1725 20.9001 17.1221C21.1146 18.0718 20.9754 19.0671 20.5085 19.9214C20.0417 20.7758 19.2793 21.4305 18.3642 21.7629C17.4491 22.0954 16.4442 22.0826 15.5379 21.7272C14.6315 21.3717 13.8859 20.6979 13.4408 19.832C12.9958 18.9661 12.8818 17.9676 13.1202 17.0237V17.0247ZM6.00021 14.0017C6.53064 14.0017 7.03935 13.791 7.41442 13.4159C7.78949 13.0408 8.00021 12.5321 8.00021 12.0017C8.00021 11.4712 7.78949 10.9625 7.41442 10.5875C7.03935 10.2124 6.53064 10.0017 6.00021 10.0017C5.46977 10.0017 4.96107 10.2124 4.58599 10.5875C4.21092 10.9625 4.00021 11.4712 4.00021 12.0017C4.00021 12.5321 4.21092 13.0408 4.58599 13.4159C4.96107 13.791 5.46977 14.0017 6.00021 14.0017ZM17.0002 8.00167C17.5306 8.00167 18.0393 7.79096 18.4144 7.41588C18.7895 7.04081 19.0002 6.5321 19.0002 6.00167C19.0002 5.47124 18.7895 4.96253 18.4144 4.58745C18.0393 4.21238 17.5306 4.00167 17.0002 4.00167C16.4698 4.00167 15.9611 4.21238 15.586 4.58745C15.2109 4.96253 15.0002 5.47124 15.0002 6.00167C15.0002 6.5321 15.2109 7.04081 15.586 7.41588C15.9611 7.79096 16.4698 8.00167 17.0002 8.00167ZM17.0002 20.0017C17.5306 20.0017 18.0393 19.791 18.4144 19.4159C18.7895 19.0408 19.0002 18.5321 19.0002 18.0017C19.0002 17.4712 18.7895 16.9625 18.4144 16.5875C18.0393 16.2124 17.5306 16.0017 17.0002 16.0017C16.4698 16.0017 15.9611 16.2124 15.586 16.5875C15.2109 16.9625 15.0002 17.4712 15.0002 18.0017C15.0002 18.5321 15.2109 19.0408 15.586 19.4159C15.9611 19.791 16.4698 20.0017 17.0002 20.0017Z" fill="#373737"/>
    </g>
    <defs>
      <clipPath id="clip0_1_569">
        <rect width="24" height="24" fill="white"/>
      </clipPath>
    </defs>
  </svg>

  <svg id="icon-hangup"
    xmlns="http://www.w3.org/2000/svg" viewBox="0 0 24 24" fill="none">
    <path d="M3.87386 11.47C8.39174 6.93943 15.3003 6.98027 19.7806 11.47C20.0738 11.7633 20.0749 12.2395 19.7822 12.5323L18.3821 13.9324C18.1196 14.1949 17.7033 14.2251 17.4047 14.004C16.6892 13.4731 15.9012 13.0477 15.0649 12.7407L14.8925 12.6776C14.7766 12.6351 14.6792 12.5534 14.617 12.4467C14.5549 12.34 14.5319 12.215 14.5521 12.0932C14.6761 11.3497 14.2185 10.5611 13.3949 10.4131C12.3579 10.2268 11.2961 10.2266 10.259 10.4126C9.43543 10.5616 8.97776 11.3502 9.10185 12.0926C9.12229 12.2146 9.09945 12.3399 9.03727 12.4468C8.9751 12.5537 8.87751 12.6356 8.76138 12.6781L8.59009 12.7412C7.75323 13.0478 6.96515 13.4731 6.24974 14.004C5.95116 14.2251 5.53486 14.1949 5.27181 13.9318L3.87227 12.5323C3.80258 12.4626 3.74731 12.3799 3.70962 12.2888C3.67193 12.1977 3.65255 12.1001 3.6526 12.0016C3.65265 11.903 3.67212 11.8054 3.70991 11.7144C3.74769 11.6234 3.80304 11.5407 3.8728 11.4711L3.87386 11.47Z" fill="#373737"/>
  </svg>

  <svg id="icon-stop-camera"
    xmlns="http://www.w3.org/2000/svg" viewBox="0 0 24 24" fill="none">
    <path d="M16.2 8.58787C16.2 7.81577 15.5721 7.18787 14.8 7.18787H8.0898L6.1949 5.29297L5.2051 6.28277L17.8051 18.8828L18.7949 17.893L16.2 15.2981V13.2548L19 15.5879V8.58787L16.2 10.921V8.58787ZM14.8 13.8981L9.4898 8.58787H14.8V13.8981ZM6.4 16.9879H14.0153L12.6153 15.5879H6.4V9.37257L5.1015 8.07337C5.03518 8.23683 5.00073 8.41147 5 8.58787V15.5879C5 16.36 5.6279 16.9879 6.4 16.9879Z" fill="#373737"/>
  </svg>

  <svg id="icon-stop-mic"
    xmlns="http://www.w3.org/2000/svg" viewBox="0 0 24 24" fill="none">
    <path d="M17.5351 12.5024C17.5351 13.1018 17.4352 13.6788 17.2524 14.2165L16.3874 13.3515C16.444 13.072 16.4724 12.7876 16.4724 12.5024V11.4397C16.4724 11.2988 16.5284 11.1637 16.628 11.064C16.7276 10.9644 16.8628 10.9084 17.0037 10.9084C17.1446 10.9084 17.2798 10.9644 17.3794 11.064C17.4791 11.1637 17.5351 11.2988 17.5351 11.4397V12.5024ZM12.2216 16.7532C13.0909 16.7532 13.8985 16.4928 14.5723 16.0444L15.3353 16.8084C14.5767 17.3585 13.6855 17.6971 12.753 17.7893V19.9412H15.941C16.082 19.9412 16.2171 19.9972 16.3167 20.0968C16.4164 20.1965 16.4724 20.3316 16.4724 20.4726C16.4724 20.6135 16.4164 20.7486 16.3167 20.8483C16.2171 20.9479 16.082 21.0039 15.941 21.0039H8.50223C8.36131 21.0039 8.22616 20.9479 8.12652 20.8483C8.02687 20.7486 7.97089 20.6135 7.97089 20.4726C7.97089 20.3316 8.02687 20.1965 8.12652 20.0968C8.22616 19.9972 8.36131 19.9412 8.50223 19.9412H11.6903V17.7893C10.3797 17.6576 9.16468 17.0437 8.28106 16.0668C7.39745 15.0899 6.90819 13.8196 6.9082 12.5024V11.4397C6.9082 11.2988 6.96418 11.1637 7.06383 11.064C7.16348 10.9644 7.29863 10.9084 7.43955 10.9084C7.58047 10.9084 7.71562 10.9644 7.81526 11.064C7.91491 11.1637 7.97089 11.2988 7.97089 11.4397V12.5024C7.97089 13.6298 8.41873 14.711 9.2159 15.5082C10.0131 16.3053 11.0943 16.7532 12.2216 16.7532ZM15.4097 7.18899V12.3738L14.347 11.3111V7.18899C14.3495 6.63455 14.1351 6.10109 13.7498 5.70244C13.3645 5.30378 12.8386 5.0715 12.2844 5.05514C11.7302 5.03878 11.1915 5.23963 10.7833 5.61486C10.3751 5.99009 10.1297 6.50997 10.0994 7.0636L9.20148 6.16563C9.44477 5.45069 9.93388 4.8453 10.5817 4.45722C11.2296 4.06913 11.9941 3.92355 12.7393 4.04638C13.4844 4.16921 14.1618 4.55248 14.6508 5.12796C15.1398 5.70345 15.4087 6.4338 15.4097 7.18899Z" fill="#373737"/>
    <path d="M13.8002 15.2721L13.0053 14.4772C12.6829 14.6052 12.3341 14.6523 11.9893 14.6145C11.6445 14.5767 11.3142 14.455 11.0272 14.2602C10.7402 14.0653 10.5053 13.8032 10.3429 13.4967C10.1805 13.1901 10.0957 12.8485 10.0957 12.5016V11.5686L9.033 10.5059V12.5016C9.03283 13.0599 9.17926 13.6084 9.45762 14.0923C9.73599 14.5762 10.1365 14.9785 10.6192 15.259C11.1019 15.5395 11.6497 15.6883 12.208 15.6906C12.7662 15.6929 13.3153 15.5486 13.8002 15.2721ZM5.46875 5.43903L18.221 18.1913L18.9734 17.4389L6.22113 4.68665L5.46875 5.43903Z" fill="#373737"/>
  </svg>

  <svg id="icon-view"
    xmlns="http://www.w3.org/2000/svg" viewBox="0 0 24 24" fill="none">
    <path fill-rule="evenodd" clip-rule="evenodd" d="M12 20.4999C16.9706 20.4999 21 16.3389 21 13.4999C21 10.661 16.9706 6.49994 12 6.49994C7.02944 6.49994 3 10.6639 3 13.4999C3 16.336 7.02944 20.4999 12 20.4999Z" stroke="#373737" stroke-width="1.5" stroke-linejoin="round"/>
    <path d="M12 16.4999C13.6569 16.4999 15 15.1568 15 13.4999C15 11.8431 13.6569 10.4999 12 10.4999C10.3431 10.4999 9 11.8431 9 13.4999C9 15.1568 10.3431 16.4999 12 16.4999Z" stroke="#373737" stroke-width="1.5" stroke-linejoin="round"/>
    <path d="M6.63281 5.63275L7.93009 7.44286" stroke="#373737" stroke-width="1.5" stroke-linecap="round"/>
    <path d="M17.8125 5.85541L16.5152 7.66552" stroke="#373737" stroke-width="1.5" stroke-linecap="round"/>
    <path d="M12.0039 3.49994V6.49994" stroke="#373737" stroke-width="1.5" stroke-linecap="round"/>
  </svg>

  <svg id="icon-hide"
    xmlns="http://www.w3.org/2000/svg" viewBox="0 0 24 24" fill="none">
    <path fill-rule="evenodd" clip-rule="evenodd" d="M12 20.5C16.9706 20.5 21 16.339 21 13.5C21 10.661 16.9706 6.5 12 6.5C7.02944 6.5 3 10.6639 3 13.5C3 16.3361 7.02944 20.5 12 20.5Z" stroke="#373737" stroke-width="1.5" stroke-linejoin="round"/>
    <path d="M12 16.5C13.6569 16.5 15 15.1569 15 13.5C15 11.8431 13.6569 10.5 12 10.5C10.3431 10.5 9 11.8431 9 13.5C9 15.1569 10.3431 16.5 12 16.5Z" stroke="#373737" stroke-width="1.5" stroke-linejoin="round"/>
    <path d="M6.63281 5.63281L7.93009 7.44292" stroke="#373737" stroke-width="1.5" stroke-linecap="round"/>
    <path d="M17.8125 5.85547L16.5152 7.66558" stroke="#373737" stroke-width="1.5" stroke-linecap="round"/>
    <path d="M12.0039 3.5V6.5" stroke="#373737" stroke-width="1.5" stroke-linecap="round"/>
    <rect x="0.288967" y="0.0337234" width="2.25493" height="27.3854" rx="1.12747" transform="matrix(0.801972 -0.597362 0.642865 0.765979 2.43593 2.89731)" fill="#373737" stroke="#373737" stroke-width="0.4"/>
  </svg>

  <svg id="icon-arrow-chevron-up"
    xmlns="http://www.w3.org/2000/svg" viewBox="0 0 24 24" fill="none">
    <path d="M18.9263 14.9632L11.9631 8.00003L4.99994 14.9632" stroke="#373737" stroke-width="2" stroke-linecap="round" stroke-linejoin="round"/>
  </svg>

  <svg id="icon-arrow-chevron-down"
    xmlns="http://www.w3.org/2000/svg" viewBox="0 0 24 24" fill="none">
    <path d="M18.9263 10L11.9631 16.9632L4.99994 10" stroke="#373737" stroke-width="2" stroke-linecap="round" stroke-linejoin="round"/>
  </svg>

  <svg id="icon-search"
    xmlns="http://www.w3.org/2000/svg" viewBox="0 0 24 24" fill="none">
    <path d="M21 21L18 18M20 11C20 15.9706 15.9706 20 11 20C6.02944 20 2 15.9706 2 11C2 6.02944 6.02944 2 11 2C15.9706 2 20 6.02944 20 11Z" stroke="#373737" stroke-width="2" stroke-linecap="round" stroke-linejoin="round"/>
  </svg>

  <svg id="icon-close-x"
    xmlns="http://www.w3.org/2000/svg" viewBox="0 0 24 24" fill="none">
    <path d="M6 6.00002L18.7742 18.7742M6 18.7742L18.7742 6" stroke="#373737" stroke-width="2" stroke-linecap="round" stroke-linejoin="round"/>
  </svg>

  <svg id="icon-microphone"
    xmlns="http://www.w3.org/2000/svg" viewBox="0 0 24 24" fill="none">
    <path d="M5 9.5C5 8.94772 4.55228 8.5 4 8.5C3.44772 8.5 3 8.94772 3 9.5H5ZM21 9.5C21 8.94772 20.5523 8.5 20 8.5C19.4477 8.5 19 8.94772 19 9.5H21ZM11 23C11 23.5523 11.4477 24 12 24C12.5523 24 13 23.5523 13 23H11ZM16 24C16.5523 24 17 23.5523 17 23C17 22.4477 16.5523 22 16 22V24ZM8 22C7.44772 22 7 22.4477 7 23C7 23.5523 7.44772 24 8 24V22ZM15 5V11H17V5H15ZM9 11V5H7V11H9ZM12 14C10.3431 14 9 12.6569 9 11H7C7 13.7614 9.23858 16 12 16V14ZM15 11C15 12.6569 13.6569 14 12 14V16C14.7614 16 17 13.7614 17 11H15ZM12 2C13.6569 2 15 3.34315 15 5H17C17 2.23858 14.7614 0 12 0V2ZM12 0C9.23858 0 7 2.23858 7 5H9C9 3.34315 10.3431 2 12 2V0ZM5 11V9.5H3V11H5ZM19 9.5V11H21V9.5H19ZM12 18C8.13401 18 5 14.866 5 11H3C3 15.9706 7.02944 20 12 20V18ZM12 20C16.9706 20 21 15.9706 21 11H19C19 14.866 15.866 18 12 18V20ZM11 19V23H13V19H11ZM16 22H8V24H16V22Z" fill="#373737"/>
  </svg>

  <svg id="icon-tag"
    xmlns="http://www.w3.org/2000/svg" viewBox="0 0 24 24" fill="none">
    <path d="M1.61964 2.57887L0.620435 2.5389L1.61964 2.57887ZM2.57887 1.61964L2.5389 0.620435L2.57887 1.61964ZM2.15017 13.4639L1.44306 14.171H1.44306L2.15017 13.4639ZM1.27388 11.2227L0.274684 11.1827L1.27388 11.2227ZM10.8489 22.1626L11.556 21.4555L10.8489 22.1626ZM22.1626 10.8489L22.8697 10.1418L22.1626 10.8489ZM13.4639 2.15017L12.7568 2.85727L13.4639 2.15017ZM11.2227 1.27388L11.1827 0.274684L11.2227 1.27388ZM8.70701 7.29257C8.31649 6.90204 7.68332 6.90204 7.2928 7.29257C6.90228 7.68309 6.90228 8.31626 7.2928 8.70678L8.70701 7.29257ZM8.2928 9.70678C8.68332 10.0973 9.31649 10.0973 9.70701 9.70678C10.0975 9.31626 10.0975 8.68309 9.70701 8.29257L8.2928 9.70678ZM12.7568 2.85727L21.4555 11.556L22.8697 10.1418L14.171 1.44306L12.7568 2.85727ZM21.4555 14.3845L14.3845 21.4555L15.7987 22.8697L22.8697 15.7987L21.4555 14.3845ZM11.556 21.4555L2.85727 12.7568L1.44306 14.171L10.1418 22.8697L11.556 21.4555ZM2.27309 11.2626L2.61884 2.61884L0.620435 2.5389L0.274684 11.1827L2.27309 11.2626ZM2.61884 2.61884L11.2626 2.27309L11.1827 0.274684L2.5389 0.620435L2.61884 2.61884ZM2.61884 2.61884V2.61884L2.5389 0.620435C1.49711 0.662107 0.662107 1.49711 0.620435 2.5389L2.61884 2.61884ZM2.85727 12.7568C2.46257 12.3621 2.25078 11.8204 2.27309 11.2626L0.274684 11.1827C0.230064 12.2982 0.653653 13.3816 1.44306 14.171L2.85727 12.7568ZM14.3845 21.4555C13.6034 22.2366 12.3371 22.2366 11.556 21.4555L10.1418 22.8697C11.7039 24.4318 14.2366 24.4318 15.7987 22.8697L14.3845 21.4555ZM21.4555 11.556C22.2366 12.3371 22.2366 13.6034 21.4555 14.3845L22.8697 15.7987C24.4318 14.2366 24.4318 11.7039 22.8697 10.1418L21.4555 11.556ZM14.171 1.44306C13.3816 0.653652 12.2982 0.230064 11.1827 0.274684L11.2626 2.27309C11.8204 2.25078 12.3621 2.46257 12.7568 2.85727L14.171 1.44306ZM7.2928 8.70678L8.2928 9.70678L9.70701 8.29257L8.70701 7.29257L7.2928 8.70678Z" fill="#373737"/>
  </svg>

  <svg id="icon-heart"
    xmlns="http://www.w3.org/2000/svg" viewBox="0 0 24 24" fill="none">
    <path d="M2.77216 3.77216C0.40928 6.13503 0.409282 9.96602 2.77216 12.3289L11.937 21.4937L12 21.4307L12.0631 21.4938L21.2279 12.329C23.5908 9.96609 23.5908 6.13511 21.2279 3.77223C18.865 1.40936 15.034 1.40936 12.6712 3.77224L12.3536 4.08978C12.1584 4.28505 11.8418 4.28505 11.6465 4.08978L11.3289 3.77216C8.96601 1.40928 5.13503 1.40928 2.77216 3.77216Z" stroke="#373737" stroke-width="2" stroke-linecap="round" stroke-linejoin="round"/>
  </svg>

  <svg id="icon-person"
    xmlns="http://www.w3.org/2000/svg" viewBox="0 0 24 24" fill="none">
    <path d="M14.0876 10.7369C15.3332 9.62289 16.0721 8.04998 16.134 6.37997C16.196 4.71002 15.5759 3.08651 14.4163 1.88307C13.2568 0.679869 11.6576 0 9.98644 0C8.31527 0 6.71612 0.67993 5.55656 1.88307C4.39699 3.08651 3.77693 4.70995 3.83888 6.37997C3.90086 8.04992 4.63965 9.62289 5.88526 10.7369C4.16716 11.3386 2.67834 12.4586 1.62418 13.9426C0.570015 15.4264 0.00262427 17.2011 0 19.0214C0 19.3974 0.200732 19.7449 0.52638 19.9331C0.852027 20.121 1.25324 20.121 1.5789 19.9331C1.90478 19.745 2.10527 19.3974 2.10527 19.0214C2.10718 17.249 2.81212 15.5497 4.06536 14.2964C5.3186 13.0432 7.01791 12.3382 8.79014 12.3363H11.2098C12.9823 12.3382 14.6816 13.0432 15.9349 14.2964C17.1881 15.5497 17.8931 17.249 17.895 19.0214C17.895 19.3974 18.0955 19.7449 18.4211 19.9331C18.7467 20.121 19.1482 20.121 19.4739 19.9331C19.7995 19.745 20 19.3974 20 19.0214C19.9957 17.1977 19.4243 15.4207 18.3648 13.9365C17.3054 12.4522 15.8106 11.3339 14.0875 10.7369H14.0876ZM9.98651 2.15861C11.0543 2.15861 12.0782 2.58272 12.8332 3.33771C13.5885 4.0927 14.0126 5.11684 14.0126 6.18461C14.0126 7.25238 13.5885 8.27628 12.8332 9.03133C12.0782 9.78633 11.0543 10.2104 9.98651 10.2104C8.91867 10.2104 7.89484 9.78632 7.13978 9.03133C6.38454 8.27634 5.96045 7.25245 5.96045 6.18461C5.96045 5.11678 6.38455 4.0927 7.13978 3.33771C7.89478 2.58271 8.91867 2.15861 9.98651 2.15861Z" fill="#373737"/>
  </svg>

  <svg id="icon-two-people"
    xmlns="http://www.w3.org/2000/svg" viewBox="0 0 24 24" fill="none">
    <path d="M13 20V18M13 20H1V18C1 14.6863 3.68629 12 7 12C10.3137 12 13 14.6863 13 18M13 20H22V19.5C22 16.4624 19.5376 14 16.5 14C14.9435 14 13.538 14.6466 12.5374 15.6858C12.8354 16.3979 13 17.1797 13 18M10 6C10 7.65685 8.65685 9 7 9C5.34315 9 4 7.65685 4 6C4 4.34315 5.34315 3 7 3C8.65685 3 10 4.34315 10 6ZM19 8.5C19 9.88071 17.8807 11 16.5 11C15.1193 11 14 9.88071 14 8.5C14 7.11929 15.1193 6 16.5 6C17.8807 6 19 7.11929 19 8.5Z" stroke="#373737" stroke-width="2"/>
  </svg>

  <svg id="icon-hashtag"
    xmlns="http://www.w3.org/2000/svg" viewBox="0 0 24 24" fill="none">
    <path d="M5 9H21M3 15H19M18 4L12 20M12 4L6 20" stroke="#373737" stroke-width="2" stroke-linecap="round" stroke-linejoin="round"/>
  </svg>

  <svg id="icon-three-people"
    xmlns="http://www.w3.org/2000/svg" viewBox="0 0 24 24" fill="none">
    <path d="M17 20V18M17 20H7M17 20H23V18.5C23 16.567 21.433 15 19.5 15C18.3708 15 17.3665 15.5348 16.7265 16.3648C16.9037 16.8772 17 17.4274 17 18M7 20V18M7 20H1V18.5C1 16.567 2.567 15 4.5 15C5.62921 15 6.63351 15.5348 7.27349 16.3648C7.09626 16.8772 7 17.4274 7 18M17 18C17 15.2386 14.7614 13 12 13C9.23858 13 7 15.2386 7 18M15 7C15 8.65685 13.6569 10 12 10C10.3431 10 9 8.65685 9 7C9 5.34315 10.3431 4 12 4C13.6569 4 15 5.34315 15 7ZM6 10C6 11.1046 5.10457 12 4 12C2.89543 12 2 11.1046 2 10C2 8.89543 2.89543 8 4 8C5.10457 8 6 8.89543 6 10ZM22 10C22 11.1046 21.1046 12 20 12C18.8954 12 18 11.1046 18 10C18 8.89543 18.8954 8 20 8C21.1046 8 22 8.89543 22 10Z" stroke="#373737" stroke-width="2"/>
  </svg>

  <svg id="icon-share-back"
    xmlns="http://www.w3.org/2000/svg" viewBox="0 0 24 24" fill="none">
    <path d="M9.82609 9.19408V5L2 12.1299L9.82609 19.2599V15.0658C9.82609 15.0658 12 14.6464 15.913 16.324C19.8261 18.0016 22 20 22 20C22 20 21.1304 15.1497 17.2174 12.1299C13.3043 9.1102 9.82609 9.19408 9.82609 9.19408Z" stroke="#373737" stroke-width="2"/>
  </svg>

  <svg id="icon-time"
    xmlns="http://www.w3.org/2000/svg" viewBox="0 0 24 24" fill="none">
    <path d="M13 7C13 6.44772 12.5523 6 12 6C11.4477 6 11 6.44772 11 7H13ZM12 13H11C11 13.2652 11.1054 13.5196 11.2929 13.7071L12 13ZM13.7929 16.2071C14.1834 16.5976 14.8166 16.5976 15.2071 16.2071C15.5976 15.8166 15.5976 15.1834 15.2071 14.7929L13.7929 16.2071ZM22 12C22 17.5228 17.5228 22 12 22V24C18.6274 24 24 18.6274 24 12H22ZM12 22C6.47715 22 2 17.5228 2 12H0C0 18.6274 5.37258 24 12 24V22ZM2 12C2 6.47715 6.47715 2 12 2V0C5.37258 0 0 5.37258 0 12H2ZM12 2C17.5228 2 22 6.47715 22 12H24C24 5.37258 18.6274 0 12 0V2ZM11 7V13H13V7H11ZM11.2929 13.7071L13.7929 16.2071L15.2071 14.7929L12.7071 12.2929L11.2929 13.7071Z" fill="#373737"/>
  </svg>

  <svg id="icon-cart"
    xmlns="http://www.w3.org/2000/svg" viewBox="0 0 24 24" fill="none">
    <path d="M1 2H3.39566C4.33305 2 5.14468 2.65106 5.34803 3.56614L6 6.5M6 6.5L7.10424 12.5733C7.62296 15.4263 10.1077 17.5 13.0075 17.5H15.7106C18.512 17.5 20.9406 15.5615 21.5614 12.8297L22.5835 8.33243C22.7969 7.39379 22.0834 6.5 21.1208 6.5H6ZM9.5 21C9.5 21.5523 9.05228 22 8.5 22C7.94772 22 7.5 21.5523 7.5 21C7.5 20.4477 7.94772 20 8.5 20C9.05228 20 9.5 20.4477 9.5 21ZM21.5 21C21.5 21.5523 21.0523 22 20.5 22C19.9477 22 19.5 21.5523 19.5 21C19.5 20.4477 19.9477 20 20.5 20C21.0523 20 21.5 20.4477 21.5 21Z" stroke="#373737" stroke-width="2" stroke-linecap="round"/>
  </svg>

  <svg id="icon-bag"
    xmlns="http://www.w3.org/2000/svg" viewBox="0 0 24 24" fill="none">
    <path d="M4.73364 1.71963L5.50186 2.35982L4.73364 1.71963ZM19.2664 1.71963L18.4981 2.35982V2.35982L19.2664 1.71963ZM21.5364 4.44373L22.3047 3.80355V3.80355L21.5364 4.44373ZM2.46356 4.44373L1.69534 3.80355L2.46356 4.44373ZM17 10C17 9.44771 16.5523 9 16 9C15.4477 9 15 9.44771 15 10H17ZM9 10C9 9.44771 8.55228 9 8 9C7.44772 9 7 9.44771 7 10H9ZM22.3047 3.80355L20.0346 1.07945L18.4981 2.35982L20.7682 5.08392L22.3047 3.80355ZM17.7299 0H6.27008V2H17.7299V0ZM3.96542 1.07945L1.69534 3.80355L3.23178 5.08392L5.50186 2.35982L3.96542 1.07945ZM23 20V5.7241H21V20H23ZM1 5.7241V20H3V5.7241H1ZM5 24H19V22H5V24ZM1 20C1 22.2091 2.79086 24 5 24V22C3.89543 22 3 21.1046 3 20H1ZM21 20C21 21.1046 20.1046 22 19 22V24C21.2091 24 23 22.2091 23 20H21ZM6.27008 0C5.37974 0 4.5354 0.395469 3.96542 1.07945L5.50186 2.35982C5.69186 2.13182 5.9733 2 6.27008 2V0ZM20.0346 1.07945C19.4646 0.395469 18.6203 0 17.7299 0V2C18.0267 2 18.3081 2.13182 18.4981 2.35982L20.0346 1.07945ZM20.7682 5.08392C20.918 5.26363 21 5.49016 21 5.7241H23C23 5.02229 22.754 4.34269 22.3047 3.80355L20.7682 5.08392ZM1.69534 3.80355C1.24605 4.34269 1 5.02229 1 5.7241H3C3 5.49016 3.08202 5.26363 3.23178 5.08392L1.69534 3.80355ZM2 6.5H22V4.5H2V6.5ZM15 10C15 11.6569 13.6569 13 12 13V15C14.7614 15 17 12.7614 17 10H15ZM12 13C10.3431 13 9 11.6569 9 10H7C7 12.7614 9.23858 15 12 15V13Z" fill="#373737"/>
  </svg>

  <svg id="icon-calendar"
    xmlns="http://www.w3.org/2000/svg" viewBox="0 0 24 24" fill="none">
    <path d="M7 1V3M17 1V3M2 8H22M7.5 13H9.5M14.5 13H16.5M7.5 17H9.5M14.5 17H16.5M5 22H19C20.6569 22 22 20.6569 22 19V6C22 4.34315 20.6569 3 19 3H5C3.34315 3 2 4.34315 2 6V19C2 20.6569 3.34315 22 5 22Z" stroke="#373737" stroke-width="2" stroke-linecap="round" stroke-linejoin="round"/>
  </svg>

  <svg id="icon-call"
    xmlns="http://www.w3.org/2000/svg" viewBox="0 0 24 24" fill="none">
    <path d="M22.8972 17.2787L22.5118 20.7467C22.4085 21.6764 21.6712 22.3933 20.7409 22.2957C18.4152 22.0517 13.8295 20.9023 8.90012 15.9729C3.97082 11.0436 2.82073 6.45727 2.57626 4.13117C2.47846 3.2007 3.19551 2.4631 4.12538 2.35978L7.59297 1.97449C8.38562 1.88642 9.15483 2.27769 9.55043 2.97019L10.9695 5.45428C11.4169 6.23733 11.2848 7.22289 10.6471 7.86057L10.0098 8.49785C9.537 8.9707 9.33693 9.65212 9.6232 10.2565C9.9624 10.9725 10.5915 12.0074 11.7279 13.1438C12.8642 14.2802 13.8991 14.9093 14.6152 15.2485C15.2195 15.5347 15.901 15.3347 16.3738 14.8618L17.0111 14.2245C17.6488 13.5868 18.6343 13.4548 19.4174 13.9021L21.9015 15.3212C22.594 15.7168 22.9852 16.486 22.8972 17.2787Z" stroke="#373737" stroke-width="2" stroke-linecap="round" stroke-linejoin="round"/>
  </svg>

  <svg id="icon-schedule"
    xmlns="http://www.w3.org/2000/svg" viewBox="0 0 24 24" fill="none">
    <path d="M19.6667 3.33333H18.5V1H16.1667V3.33333H6.83333V1H4.5V3.33333H3.33333C2.05 3.33333 1 4.38333 1 5.66667V22C1 23.2833 2.05 24.3333 3.33333 24.3333H19.6667C20.95 24.3333 22 23.2833 22 22V5.66667C22 4.38333 20.95 3.33333 19.6667 3.33333ZM19.6667 22H3.33333V10.3333H19.6667V22ZM3.33333 8V5.66667H19.6667V8H3.33333ZM5.66667 12.6667H17.3333V15H5.66667V12.6667ZM5.66667 17.3333H13.8333V19.6667H5.66667V17.3333Z" fill="#373737" stroke="#373737" stroke-width="0.5"/>
  </svg>

  <svg id="icon-read-book"
    xmlns="http://www.w3.org/2000/svg" viewBox="0 0 24 24" fill="none">
    <path d="M1 5.2L0.375305 4.41913C0.13809 4.6089 0 4.89622 0 5.2H1ZM12 21L11.3753 21.7809L12 22.2806L12.6247 21.7809L12 21ZM1 21H0C0 21.3844 0.220346 21.7348 0.566811 21.9013C0.913277 22.0678 1.32452 22.021 1.62469 21.7809L1 21ZM23 5.2H24C24 4.89622 23.8619 4.6089 23.6247 4.41913L23 5.2ZM23 21L22.3753 21.7809C22.6755 22.021 23.0867 22.0678 23.4332 21.9013C23.7797 21.7348 24 21.3844 24 21H23ZM11 5.2V21H13V5.2H11ZM2 21V5.2H0V21H2ZM1 5.2C1.6247 5.98087 1.62452 5.98101 1.62435 5.98114C1.62431 5.98117 1.62416 5.9813 1.62407 5.98136C1.62391 5.9815 1.62378 5.9816 1.6237 5.98166C1.62353 5.9818 1.62353 5.9818 1.62369 5.98168C1.624 5.98143 1.62496 5.98066 1.62657 5.9794C1.62977 5.97688 1.63552 5.97237 1.64373 5.96602C1.66016 5.9533 1.68641 5.93319 1.72182 5.90675C1.79271 5.85382 1.89993 5.77578 2.03818 5.68098C2.31555 5.49079 2.71324 5.23627 3.18934 4.98235C4.16435 4.46235 5.36652 4 6.5 4V2C4.88348 2 3.33565 2.63765 2.24816 3.21765C1.69301 3.51373 1.23133 3.80921 0.907128 4.03152C0.744604 4.14297 0.615496 4.2368 0.525246 4.30419C0.480092 4.3379 0.444578 4.36506 0.419382 4.38457C0.406781 4.39432 0.396752 4.40217 0.38938 4.40798C0.385694 4.41088 0.382671 4.41327 0.380322 4.41514C0.379147 4.41607 0.378141 4.41687 0.377304 4.41754C0.376886 4.41787 0.37651 4.41817 0.376177 4.41843C0.37601 4.41857 0.375792 4.41874 0.375709 4.41881C0.375502 4.41897 0.375305 4.41913 1 5.2ZM6.5 4C7.63348 4 8.83565 4.46235 9.81066 4.98235C10.2868 5.23627 10.6845 5.49079 10.9618 5.68098C11.1001 5.77578 11.2073 5.85382 11.2782 5.90675C11.3136 5.93319 11.3398 5.9533 11.3563 5.96602C11.3645 5.97237 11.3702 5.97688 11.3734 5.9794C11.375 5.98066 11.376 5.98143 11.3763 5.98168C11.3765 5.9818 11.3765 5.9818 11.3763 5.98166C11.3762 5.9816 11.3761 5.9815 11.3759 5.98136C11.3758 5.9813 11.3757 5.98117 11.3756 5.98114C11.3755 5.98101 11.3753 5.98087 12 5.2C12.6247 4.41913 12.6245 4.41897 12.6243 4.41881C12.6242 4.41874 12.624 4.41857 12.6238 4.41843C12.6235 4.41817 12.6231 4.41787 12.6227 4.41754C12.6219 4.41687 12.6209 4.41607 12.6197 4.41514C12.6173 4.41327 12.6143 4.41088 12.6106 4.40798C12.6032 4.40217 12.5932 4.39432 12.5806 4.38457C12.5554 4.36506 12.5199 4.3379 12.4748 4.30419C12.3845 4.2368 12.2554 4.14297 12.0929 4.03152C11.7687 3.80921 11.307 3.51373 10.7518 3.21765C9.66435 2.63765 8.11652 2 6.5 2V4ZM12 21C12.6247 20.2191 12.6245 20.219 12.6243 20.2188C12.6242 20.2187 12.624 20.2186 12.6238 20.2184C12.6235 20.2182 12.6231 20.2179 12.6227 20.2175C12.6219 20.2169 12.6209 20.2161 12.6197 20.2151C12.6173 20.2133 12.6143 20.2109 12.6106 20.208C12.6032 20.2022 12.5932 20.1943 12.5806 20.1846C12.5554 20.1651 12.5199 20.1379 12.4748 20.1042C12.3845 20.0368 12.2554 19.943 12.0929 19.8315C11.7687 19.6092 11.307 19.3137 10.7518 19.0176C9.66435 18.4377 8.11652 17.8 6.5 17.8V19.8C7.63348 19.8 8.83565 20.2623 9.81066 20.7824C10.2868 21.0363 10.6845 21.2908 10.9618 21.481C11.1001 21.5758 11.2073 21.6538 11.2782 21.7067C11.3136 21.7332 11.3398 21.7533 11.3563 21.766C11.3645 21.7724 11.3702 21.7769 11.3734 21.7794C11.375 21.7807 11.376 21.7814 11.3763 21.7817C11.3765 21.7818 11.3765 21.7818 11.3763 21.7817C11.3762 21.7816 11.3761 21.7815 11.3759 21.7814C11.3758 21.7813 11.3757 21.7812 11.3756 21.7811C11.3755 21.781 11.3753 21.7809 12 21ZM6.5 17.8C4.88348 17.8 3.33565 18.4377 2.24816 19.0176C1.69301 19.3137 1.23133 19.6092 0.907128 19.8315C0.744604 19.943 0.615496 20.0368 0.525246 20.1042C0.480092 20.1379 0.444578 20.1651 0.419382 20.1846C0.406781 20.1943 0.396753 20.2022 0.389381 20.208C0.385694 20.2109 0.382671 20.2133 0.380322 20.2151C0.379147 20.2161 0.378141 20.2169 0.377305 20.2175C0.376886 20.2179 0.37651 20.2182 0.376177 20.2184C0.376011 20.2186 0.375792 20.2187 0.375709 20.2188C0.375502 20.219 0.375305 20.2191 1 21C1.62469 21.7809 1.62452 21.781 1.62435 21.7811C1.62431 21.7812 1.62416 21.7813 1.62407 21.7814C1.62391 21.7815 1.62378 21.7816 1.6237 21.7817C1.62353 21.7818 1.62353 21.7818 1.62369 21.7817C1.624 21.7814 1.62496 21.7807 1.62656 21.7794C1.62977 21.7769 1.63552 21.7724 1.64373 21.766C1.66016 21.7533 1.68641 21.7332 1.72182 21.7067C1.79271 21.6538 1.89993 21.5758 2.03818 21.481C2.31555 21.2908 2.71324 21.0363 3.18934 20.7824C4.16435 20.2623 5.36652 19.8 6.5 19.8V17.8ZM22 5.2V21H24V5.2H22ZM12 5.2C12.6247 5.98087 12.6245 5.98101 12.6244 5.98114C12.6243 5.98117 12.6242 5.9813 12.6241 5.98136C12.6239 5.9815 12.6238 5.9816 12.6237 5.98166C12.6235 5.9818 12.6235 5.9818 12.6237 5.98168C12.624 5.98143 12.625 5.98066 12.6266 5.9794C12.6298 5.97688 12.6355 5.97237 12.6437 5.96602C12.6602 5.9533 12.6864 5.93319 12.7218 5.90675C12.7927 5.85382 12.8999 5.77578 13.0382 5.68098C13.3155 5.49079 13.7132 5.23627 14.1893 4.98235C15.1643 4.46235 16.3665 4 17.5 4V2C15.8835 2 14.3357 2.63765 13.2482 3.21765C12.693 3.51373 12.2313 3.80921 11.9071 4.03152C11.7446 4.14297 11.6155 4.2368 11.5252 4.30419C11.4801 4.3379 11.4446 4.36506 11.4194 4.38457C11.4068 4.39432 11.3968 4.40217 11.3894 4.40798C11.3857 4.41088 11.3827 4.41327 11.3803 4.41514C11.3791 4.41607 11.3781 4.41687 11.3773 4.41754C11.3769 4.41787 11.3765 4.41817 11.3762 4.41843C11.376 4.41857 11.3758 4.41874 11.3757 4.41881C11.3755 4.41897 11.3753 4.41913 12 5.2ZM17.5 4C18.6335 4 19.8356 4.46235 20.8107 4.98235C21.2868 5.23627 21.6845 5.49079 21.9618 5.68098C22.1001 5.77578 22.2073 5.85382 22.2782 5.90675C22.3136 5.93319 22.3398 5.9533 22.3563 5.96602C22.3645 5.97237 22.3702 5.97688 22.3734 5.9794C22.375 5.98066 22.376 5.98143 22.3763 5.98168C22.3765 5.9818 22.3765 5.9818 22.3763 5.98166C22.3762 5.9816 22.3761 5.9815 22.3759 5.98136C22.3758 5.9813 22.3757 5.98117 22.3756 5.98114C22.3755 5.98101 22.3753 5.98087 23 5.2C23.6247 4.41913 23.6245 4.41897 23.6243 4.41881C23.6242 4.41874 23.624 4.41857 23.6238 4.41843C23.6235 4.41817 23.6231 4.41787 23.6227 4.41754C23.6219 4.41687 23.6209 4.41607 23.6197 4.41514C23.6173 4.41327 23.6143 4.41088 23.6106 4.40798C23.6032 4.40217 23.5932 4.39432 23.5806 4.38457C23.5554 4.36506 23.5199 4.3379 23.4748 4.30419C23.3845 4.2368 23.2554 4.14297 23.0929 4.03152C22.7687 3.80921 22.307 3.51373 21.7518 3.21765C20.6644 2.63765 19.1165 2 17.5 2V4ZM23 21C23.6247 20.2191 23.6245 20.219 23.6243 20.2188C23.6242 20.2187 23.624 20.2186 23.6238 20.2184C23.6235 20.2182 23.6231 20.2179 23.6227 20.2175C23.6219 20.2169 23.6209 20.2161 23.6197 20.2151C23.6173 20.2133 23.6143 20.2109 23.6106 20.208C23.6032 20.2022 23.5932 20.1943 23.5806 20.1846C23.5554 20.1651 23.5199 20.1379 23.4748 20.1042C23.3845 20.0368 23.2554 19.943 23.0929 19.8315C22.7687 19.6092 22.307 19.3137 21.7518 19.0176C20.6644 18.4377 19.1165 17.8 17.5 17.8V19.8C18.6335 19.8 19.8356 20.2623 20.8107 20.7824C21.2868 21.0363 21.6845 21.2908 21.9618 21.481C22.1001 21.5758 22.2073 21.6538 22.2782 21.7067C22.3136 21.7332 22.3398 21.7533 22.3563 21.766C22.3645 21.7724 22.3702 21.7769 22.3734 21.7794C22.375 21.7807 22.376 21.7814 22.3763 21.7817C22.3765 21.7818 22.3765 21.7818 22.3763 21.7817C22.3762 21.7816 22.3761 21.7815 22.3759 21.7814C22.3758 21.7813 22.3757 21.7812 22.3756 21.7811C22.3755 21.781 22.3753 21.7809 23 21ZM17.5 17.8C15.8835 17.8 14.3357 18.4377 13.2482 19.0176C12.693 19.3137 12.2313 19.6092 11.9071 19.8315C11.7446 19.943 11.6155 20.0368 11.5252 20.1042C11.4801 20.1379 11.4446 20.1651 11.4194 20.1846C11.4068 20.1943 11.3968 20.2022 11.3894 20.208C11.3857 20.2109 11.3827 20.2133 11.3803 20.2151C11.3791 20.2161 11.3781 20.2169 11.3773 20.2175C11.3769 20.2179 11.3765 20.2182 11.3762 20.2184C11.376 20.2186 11.3758 20.2187 11.3757 20.2188C11.3755 20.219 11.3753 20.2191 12 21C12.6247 21.7809 12.6245 21.781 12.6244 21.7811C12.6243 21.7812 12.6242 21.7813 12.6241 21.7814C12.6239 21.7815 12.6238 21.7816 12.6237 21.7817C12.6235 21.7818 12.6235 21.7818 12.6237 21.7817C12.624 21.7814 12.625 21.7807 12.6266 21.7794C12.6298 21.7769 12.6355 21.7724 12.6437 21.766C12.6602 21.7533 12.6864 21.7332 12.7218 21.7067C12.7927 21.6538 12.8999 21.5758 13.0382 21.481C13.3155 21.2908 13.7132 21.0363 14.1893 20.7824C15.1643 20.2623 16.3665 19.8 17.5 19.8V17.8Z" fill="#373737"/>
  </svg>

  <svg id="icon-home"
    xmlns="http://www.w3.org/2000/svg" viewBox="0 0 24 24" fill="none">
    <path d="M2.01029 6.00666L1.48884 5.15338H1.48884L2.01029 6.00666ZM9.94959 1.15487L9.42814 0.301587V0.301587L9.94959 1.15487ZM1.00002 7.80803L2.00002 7.80803V7.80803L1.00002 7.80803ZM1 17.1797L0 17.1797V17.1797H1ZM3.11111 19.2908V20.2908H3.11111L3.11111 19.2908ZM17.8889 19.2908V18.2908V19.2908ZM18.9897 6.00666L19.5112 5.15338L18.9897 6.00666ZM11.0504 1.15487L11.5719 0.301587V0.301587L11.0504 1.15487ZM2.53174 6.85995L10.471 2.00815L9.42814 0.301587L1.48884 5.15338L2.53174 6.85995ZM2.00002 7.80803C2.00002 7.42096 2.20146 7.06179 2.53174 6.85995L1.48884 5.15338C0.564049 5.71853 1.93119e-05 6.72423 1.7643e-05 7.80803L2.00002 7.80803ZM2 17.1797L2.00002 7.80803L1.7643e-05 7.80803L0 17.1797L2 17.1797ZM3.11111 18.2908C2.49746 18.2908 2 17.7933 2 17.1797H0C0 18.8979 1.39289 20.2908 3.11111 20.2908V18.2908ZM17.8889 18.2908L3.11111 18.2908L3.11111 20.2908L17.8889 20.2908V18.2908ZM19 17.1797C19 17.7933 18.5025 18.2908 17.8889 18.2908V20.2908C19.6071 20.2908 21 18.8979 21 17.1797H19ZM19 7.80803V17.1797H21V7.80803H19ZM18.4683 6.85994C18.7986 7.06178 19 7.42096 19 7.80803H21C21 6.72423 20.436 5.71853 19.5112 5.15338L18.4683 6.85994ZM10.529 2.00815L18.4683 6.85994L19.5112 5.15338L11.5719 0.301587L10.529 2.00815ZM10.471 2.00815C10.4888 1.99728 10.5112 1.99728 10.529 2.00815L11.5719 0.301587C10.9139 -0.100529 10.0861 -0.100529 9.42814 0.301587L10.471 2.00815ZM8.38954 9.8418C7.25429 9.8418 6.33398 10.7621 6.33398 11.8974H8.33398C8.33398 11.8667 8.35886 11.8418 8.38954 11.8418V9.8418ZM12.6118 9.8418H8.38954V11.8418H12.6118V9.8418ZM14.6673 11.8974C14.6673 10.7621 13.747 9.8418 12.6118 9.8418V11.8418C12.6424 11.8418 12.6673 11.8667 12.6673 11.8974H14.6673ZM14.6673 15.064V11.8974H12.6673V15.064H14.6673ZM12.6118 17.1196C13.747 17.1196 14.6673 16.1993 14.6673 15.064H12.6673C12.6673 15.0947 12.6424 15.1196 12.6118 15.1196V17.1196ZM8.38954 17.1196H12.6118V15.1196H8.38954V17.1196ZM6.33398 15.064C6.33398 16.1993 7.25429 17.1196 8.38954 17.1196V15.1196C8.35886 15.1196 8.33398 15.0947 8.33398 15.064H6.33398ZM6.33398 11.8974V15.064H8.33398V11.8974H6.33398Z" fill="#373737"/>
  </svg>

  <svg id="icon-two-hands"
    xmlns="http://www.w3.org/2000/svg" viewBox="0 0 24 24" fill="none">
    <path d="M20.743 15.9607C20.4171 16.2561 20.0475 16.591 19.5855 16.9685C18.4071 17.9295 17.3626 18.2235 16.8152 18.3128C16.8172 17.8448 16.6375 17.4398 16.2878 17.1414C15.6992 16.639 14.6907 16.4745 13.5208 16.6927C12.813 16.8218 12.4261 16.5322 11.8408 16.0899C11.3635 15.7296 10.7693 15.2813 9.8652 15.035C8.14033 14.5644 5.66405 16.4029 4.82753 17.0802L4.59498 16.5099C4.51938 16.3249 4.30915 16.2358 4.12413 16.3112L1.22563 17.4876C1.04061 17.563 0.951516 17.7739 1.02668 17.9591C1.10162 18.1437 1.31118 18.2328 1.49775 18.1583L4.06157 17.1176L6.78476 23.7946L4.1807 25.1349C4.00319 25.2262 3.93311 25.4444 4.02463 25.6219C4.08896 25.7468 4.2154 25.8182 4.34649 25.8182C4.4022 25.8182 4.45879 25.8054 4.51184 25.7782L7.41034 24.2863C7.57702 24.2006 7.65063 24.0014 7.57967 23.8281L7.45146 23.5137C8.01471 23.3888 8.73538 23.4545 9.61779 23.5367C10.2995 23.6004 11.092 23.6742 11.9961 23.6742C12.4519 23.6742 12.9362 23.6554 13.4489 23.6072C16.534 23.3161 19.0348 22.3706 20.8815 20.7961C22.3867 19.5133 23.6246 17.4656 23.6412 16.2317C23.6482 15.7093 23.4435 15.4143 23.2656 15.254C22.3754 14.4827 21.7264 15.071 20.7431 15.9609L20.743 15.9607ZM20.4116 20.2455C18.6805 21.7215 16.3147 22.6101 13.3808 22.8864C11.9201 23.0259 10.6808 22.9094 9.68455 22.8163C8.68404 22.7226 7.87366 22.6495 7.17556 22.8378L5.11353 17.7816C6.0141 17.0156 8.32503 15.3658 9.67499 15.7328C10.4449 15.9424 10.933 16.3111 11.4052 16.6672C12.0357 17.1434 12.6296 17.5959 13.6527 17.4038C14.5782 17.2318 15.4087 17.3426 15.8184 17.6916C16.0111 17.8561 16.1016 18.065 16.0949 18.3307C16.0772 19.0489 14.7107 19.1272 11.869 19.2247L11.3933 19.2406C11.1937 19.2477 11.0374 19.4152 11.0444 19.615C11.0513 19.8105 11.2118 19.9641 11.4056 19.9641H11.4187L11.8937 19.9475C14.3952 19.862 16.0009 19.8043 16.577 19.0699C17.0707 19.0383 18.4547 18.8241 20.0436 17.5287C20.5198 17.1392 20.913 16.7833 21.2287 16.4973C22.2787 15.5465 22.424 15.4824 22.7862 15.7961C22.8762 15.8765 22.9202 16.0202 22.9175 16.2218C22.9036 17.2393 21.7329 19.1194 20.4117 20.2455L20.4116 20.2455Z" fill="#373737" stroke="#373737"/>
    <path d="M28.7045 8.85893C28.6293 8.67435 28.4191 8.58527 28.2334 8.65976L25.6696 9.70051L22.9464 3.02342L25.5505 1.68313C25.728 1.59184 25.7981 1.37365 25.7065 1.19615C25.615 1.01864 25.3973 0.949005 25.2193 1.03986L22.3208 2.53175C22.1542 2.61752 22.0806 2.8167 22.1515 2.99L22.2797 3.30435C21.7163 3.42924 20.9956 3.36359 20.1134 3.28136C19.0879 3.18586 17.8113 3.0676 16.2823 3.21062C13.1972 3.50175 10.6964 4.44723 8.84971 6.0218C7.34452 7.30459 6.1066 9.35225 6.09002 10.5861C6.08295 11.1085 6.28765 11.4036 6.4656 11.5639C6.75452 11.8143 7.01801 11.9213 7.27574 11.9213C7.81181 11.9213 8.32357 11.458 8.9876 10.8569C9.31344 10.5616 9.68304 10.2267 10.145 9.84908C11.3242 8.88773 12.3682 8.59482 12.9153 8.50574C12.9135 8.97327 13.0933 9.37803 13.4427 9.67626C14.0312 10.1783 15.0388 10.3427 16.2097 10.125C16.9176 9.99546 17.3044 10.2855 17.8898 10.7278C18.367 11.0881 18.9613 11.5364 19.8654 11.7827C20.0568 11.8349 20.2575 11.8585 20.4642 11.8585C22.1182 11.8585 24.1563 10.3423 24.9032 9.73769L25.1357 10.3075C25.193 10.4479 25.3281 10.5326 25.4709 10.5326C25.5162 10.5326 25.5619 10.5242 25.6068 10.5063L28.5053 9.32983C28.6906 9.25467 28.7794 9.04378 28.7043 8.85876L28.7045 8.85893ZM20.0564 11.085C19.2865 10.8754 18.7984 10.5067 18.3262 10.1505C17.6957 9.67439 17.1022 9.22366 16.0787 9.41397C15.1522 9.58639 14.3224 9.4752 13.913 9.12616C13.7202 8.96169 13.6298 8.75279 13.6364 8.48708C13.6541 7.76889 15.0207 7.69063 17.8624 7.59312L18.3381 7.57721C18.5377 7.57013 18.694 7.40258 18.6869 7.20274C18.6798 7.00268 18.5039 6.85701 18.3127 6.85369L17.8376 6.87027C15.3372 6.95582 13.7315 7.01351 13.155 7.74697C12.6623 7.77747 11.2793 7.99123 9.68771 9.28905C9.21155 9.67855 8.81831 10.0345 8.50265 10.3205C7.45262 11.2708 7.30718 11.3354 6.94511 11.0217C6.85515 10.9413 6.81115 10.7976 6.81381 10.596C6.82773 9.57826 7.99847 7.69816 9.31968 6.5723C11.0508 5.09631 13.4165 4.20767 16.3505 3.93134C17.8116 3.7934 19.0509 3.90879 20.0467 4.00142C21.047 4.0947 21.8572 4.16831 22.5557 3.97997L24.6177 9.03621C23.7172 9.80216 21.4045 11.4501 20.0563 11.0849L20.0564 11.085Z" fill="#373737" stroke="#373737"/>
  </svg>

  <svg id="icon-flash"
    xmlns="http://www.w3.org/2000/svg" viewBox="0 0 24 24" fill="none">
    <path d="M15.1778 11.0991C15.1193 10.9796 15.0283 10.879 14.9155 10.8086C14.8027 10.7382 14.6722 10.7008 14.5392 10.7008H8.61176L11.8707 0.93603C11.942 0.722608 11.908 0.487881 11.7788 0.303351C11.6499 0.119016 11.4411 0.00656175 11.216 0.000263423C10.9909 -0.00585041 10.7764 0.0947478 10.6373 0.27186L0.151589 13.6179C0.0413591 13.7585 -0.011996 13.9354 0.00227007 14.1136C0.0165352 14.2917 0.097309 14.458 0.228658 14.5792C0.359823 14.7005 0.531932 14.768 0.710708 14.768H6.62914L3.09582 25.0582C3.02245 25.2722 3.05525 25.5084 3.18419 25.6944C3.31332 25.8802 3.52303 25.9936 3.74943 25.9997C3.97563 26.0059 4.19109 25.9038 4.32984 25.725L15.101 11.8483C15.1825 11.743 15.2331 11.6171 15.2466 11.4846C15.2603 11.3521 15.2365 11.2186 15.1779 11.0989L15.1778 11.0991ZM5.83039 21.4733L8.29698 14.2881V14.2883C8.37183 14.071 8.337 13.8309 8.20361 13.644C8.07003 13.4568 7.85439 13.3459 7.62466 13.3461H2.17291L9.22533 4.36952L6.95011 11.1867C6.87786 11.4035 6.91417 11.6419 7.04774 11.8274C7.18131 12.0128 7.39585 12.1227 7.62445 12.1227H13.0871L5.83039 21.4733Z" fill="#373737"/>
  </svg>

  <svg id="icon-back-arrow"
    xmlns="http://www.w3.org/2000/svg" viewBox="0 0 24 24" fill="none">
    <path d="M10.4388 5.69237C10.8212 5.29388 10.8081 4.66085 10.4096 4.27846C10.0111 3.89607 9.37811 3.90913 8.99572 4.30763L10.4388 5.69237ZM3.00018 12L2.27865 11.3076C1.90736 11.6945 1.90736 12.3055 2.27865 12.6924L3.00018 12ZM8.99572 19.6924C9.37811 20.0909 10.0111 20.1039 10.4096 19.7215C10.8081 19.3392 10.8212 18.7061 10.4388 18.3076L8.99572 19.6924ZM4.26706 11.0317C3.71478 11.0317 3.26706 11.4795 3.26706 12.0317C3.26706 12.584 3.71478 13.0317 4.26706 13.0317V11.0317ZM20.0001 13.0317C20.5524 13.0317 21.0001 12.584 21.0001 12.0317C21.0001 11.4795 20.5524 11.0317 20.0001 11.0317V13.0317ZM8.99572 4.30763L2.27865 11.3076L3.72172 12.6924L10.4388 5.69237L8.99572 4.30763ZM2.27865 12.6924L8.99572 19.6924L10.4388 18.3076L3.72172 11.3076L2.27865 12.6924ZM4.26706 13.0317H20.0001V11.0317H4.26706V13.0317Z" fill="#373737"/>
  </svg>

  <svg id="icon-forward-arrow"
    xmlns="http://www.w3.org/2000/svg" viewBox="0 0 24 24" fill="none">
    <path d="M15.0042 4.30763C14.6218 3.90913 13.9888 3.89607 13.5903 4.27846C13.1918 4.66085 13.1788 5.29388 13.5611 5.69237L15.0042 4.30763ZM20.9998 12L21.7213 12.6924C22.0926 12.3055 22.0926 11.6945 21.7213 11.3076L20.9998 12ZM13.5611 18.3076C13.1788 18.7061 13.1918 19.3391 13.5903 19.7215C13.9888 20.1039 14.6218 20.0909 15.0042 19.6924L13.5611 18.3076ZM19.7329 13.0317C20.2852 13.0317 20.7329 12.584 20.7329 12.0317C20.7329 11.4795 20.2852 11.0317 19.7329 11.0317V13.0317ZM3.99982 11.0317C3.44753 11.0317 2.99982 11.4795 2.99982 12.0317C2.99982 12.584 3.44753 13.0317 3.99982 13.0317V11.0317ZM13.5611 5.69237L20.2782 12.6924L21.7213 11.3076L15.0042 4.30763L13.5611 5.69237ZM20.2782 11.3076L13.5611 18.3076L15.0042 19.6924L21.7213 12.6924L20.2782 11.3076ZM19.7329 11.0317H3.99982V13.0317H19.7329V11.0317Z" fill="#373737"/>
  </svg>

  <svg id="icon-arrow-chevron-back"
    xmlns="http://www.w3.org/2000/svg" viewBox="0 0 24 24" fill="none">
    <path d="M14.9634 5L8.00018 11.9632L14.9634 18.9263" stroke="#373737" stroke-width="2" stroke-linecap="round" stroke-linejoin="round"/>
  </svg>

  <svg id="icon-arrow-chevron-forward"
    xmlns="http://www.w3.org/2000/svg" viewBox="0 0 24 24" fill="none">
    <path d="M10 5L16.9632 11.9632L10 18.9263" stroke="#373737" stroke-width="2" stroke-linecap="round" stroke-linejoin="round"/>
  </svg>

  <svg id="icon-arrow-caret-back"
    xmlns="http://www.w3.org/2000/svg" viewBox="0 0 24 24" fill="none">
    <path d="M7.99361 12.9182C7.45786 12.4233 7.45786 11.5768 7.99361 11.0818L12.4014 7.01006C13.202 6.2705 14.4996 6.83834 14.4996 7.92825V16.0718C14.4996 17.1617 13.202 17.7296 12.4014 16.99L7.99361 12.9182Z" fill="#373737"/>
  </svg>

  <svg id="icon-arrow-caret-forward"
    xmlns="http://www.w3.org/2000/svg" width="24" height="24" viewBox="0 0 24 24" fill="none">
    <path d="M16.006 11.0818C16.5418 11.5767 16.5418 12.4233 16.006 12.9182L11.5982 16.99C10.7976 17.7295 9.5 17.1617 9.5 16.0718V7.92821C9.5 6.8383 10.7976 6.27046 11.5982 7.01002L16.006 11.0818Z" fill="#373737"/>
  </svg>

  <svg id="icon-arrow-select"
    xmlns="http://www.w3.org/2000/svg" viewBox="0 0 24 24" fill="none">
    <path d="M8 17L12 21L16 17M8 7L12 3L16 7" stroke="#373737" stroke-width="2" stroke-linecap="round" stroke-linejoin="round"/>
  </svg>

  <svg id="icon-arrow-down"
    xmlns="http://www.w3.org/2000/svg" viewBox="0 0 24 24" fill="none">
    <path d="M5.69237 13.5612C5.29388 13.1788 4.66085 13.1918 4.27846 13.5903C3.89607 13.9888 3.90913 14.6219 4.30763 15.0043L5.69237 13.5612ZM12 20.9998L11.3076 21.7213C11.6945 22.0926 12.3055 22.0926 12.6924 21.7213L12 20.9998ZM19.6924 15.0043C20.0909 14.6219 20.1039 13.9888 19.7215 13.5903C19.3391 13.1918 18.7061 13.1788 18.3076 13.5612L19.6924 15.0043ZM11.0317 19.7329C11.0317 20.2852 11.4795 20.7329 12.0317 20.7329C12.584 20.7329 13.0317 20.2852 13.0317 19.7329H11.0317ZM13.0317 3.99986C13.0317 3.44758 12.584 2.99986 12.0317 2.99986C11.4795 2.99986 11.0317 3.44758 11.0317 3.99986H13.0317ZM4.30763 15.0043L11.3076 21.7213L12.6924 20.2783L5.69237 13.5612L4.30763 15.0043ZM12.6924 21.7213L19.6924 15.0043L18.3076 13.5612L11.3076 20.2783L12.6924 21.7213ZM13.0317 19.7329V3.99986H11.0317V19.7329H13.0317Z" fill="#373737"/>
  </svg>

  <svg id="icon-arrow-up"
    xmlns="http://www.w3.org/2000/svg" viewBox="0 0 24 24" fill="none">
    <path d="M4.30763 8.99575C3.90913 9.37814 3.89607 10.0112 4.27846 10.4097C4.66085 10.8082 5.29388 10.8212 5.69237 10.4388L4.30763 8.99575ZM12 3.00021L12.6924 2.27868C12.3055 1.90739 11.6945 1.90739 11.3076 2.27868L12 3.00021ZM18.3076 10.4388C18.7061 10.8212 19.3392 10.8082 19.7215 10.4097C20.1039 10.0112 20.0909 9.37814 19.6924 8.99575L18.3076 10.4388ZM13.0317 4.26709C13.0317 3.71481 12.584 3.26709 12.0317 3.26709C11.4795 3.26709 11.0317 3.71481 11.0317 4.26709H13.0317ZM11.0317 20.0002C11.0317 20.5524 11.4795 21.0002 12.0317 21.0002C12.584 21.0002 13.0317 20.5524 13.0317 20.0002H11.0317ZM5.69237 10.4388L12.6924 3.72175L11.3076 2.27868L4.30763 8.99575L5.69237 10.4388ZM11.3076 3.72175L18.3076 10.4388L19.6924 8.99575L12.6924 2.27868L11.3076 3.72175ZM11.0317 4.26709V20.0002H13.0317V4.26709H11.0317Z" fill="#373737"/>
  </svg>

  <svg id="icon-arrow-caret-up"
    xmlns="http://www.w3.org/2000/svg" viewBox="0 0 24 24" fill="none">
    <path d="M11.0818 7.99361C11.5768 7.45786 12.4233 7.45786 12.9182 7.99361L16.99 12.4014C17.7296 13.202 17.1617 14.4996 16.0718 14.4996H7.92825C6.83834 14.4996 6.2705 13.202 7.01006 12.4014L11.0818 7.99361Z" fill="#373737"/>
  </svg>

  <svg id="icon-arrow-caret-down"
    xmlns="http://www.w3.org/2000/svg" viewBox="0 0 24 24" fill="none">
    <path d="M12.9182 16.006C12.4233 16.5418 11.5767 16.5418 11.0818 16.006L7.01 11.5982C6.27044 10.7976 6.83828 9.5 7.92819 9.5H16.0718C17.1617 9.5 17.7295 10.7976 16.99 11.5982L12.9182 16.006Z" fill="#373737"/>
  </svg>

  <svg id="icon-export"
    xmlns="http://www.w3.org/2000/svg" viewBox="0 0 24 24" fill="none">
    <path d="M21 12.999C21 12.4467 20.5523 11.999 20 11.999C19.4477 11.999 19 12.4467 19 12.999H21ZM4 12.999C4 12.4467 3.55228 11.999 3 11.999C2.44772 11.999 2 12.4467 2 12.999H4ZM16.1799 7.25857C16.5691 7.6504 17.2023 7.65251 17.5941 7.26329C17.9859 6.87407 17.988 6.24091 17.5988 5.84908L16.1799 7.25857ZM11.7294 1.35938L12.4389 0.654631C12.2512 0.46565 11.9958 0.359375 11.7294 0.359375C11.4631 0.359375 11.2077 0.46565 11.02 0.654631L11.7294 1.35938ZM5.86006 5.84908C5.47084 6.24091 5.47295 6.87407 5.86477 7.26329C6.2566 7.65251 6.88976 7.6504 7.27898 7.25857L5.86006 5.84908ZM12.7287 2.25896C12.7287 1.70668 12.2809 1.25896 11.7287 1.25896C11.1764 1.25896 10.7287 1.70668 10.7287 2.25896H12.7287ZM10.7287 13.259C10.7287 13.8112 11.1764 14.259 11.7287 14.259C12.2809 14.259 12.7287 13.8112 12.7287 13.259H10.7287ZM19 12.999V17.999H21V12.999H19ZM15 21.999H8V23.999H15V21.999ZM4 17.999V12.999H2V17.999H4ZM8 21.999C5.79086 21.999 4 20.2082 4 17.999H2C2 21.3127 4.68629 23.999 8 23.999V21.999ZM19 17.999C19 20.2082 17.2091 21.999 15 21.999V23.999C18.3137 23.999 21 21.3127 21 17.999H19ZM17.5988 5.84908L12.4389 0.654631L11.02 2.06412L16.1799 7.25857L17.5988 5.84908ZM11.02 0.654631L5.86006 5.84908L7.27898 7.25857L12.4389 2.06412L11.02 0.654631ZM10.7287 2.25896V13.259H12.7287V2.25896H10.7287Z" fill="#373737"/>
  </svg>

  <svg id="icon-actions-plus"
    xmlns="http://www.w3.org/2000/svg" viewBox="0 0 24 24" fill="none">
    <path d="M12 3V21M3 12H21" stroke="#373737" stroke-width="2" stroke-linecap="round" stroke-linejoin="round"/>
  </svg>

  <svg id="icon-action-minus"
    xmlns="http://www.w3.org/2000/svg" viewBox="0 0 24 24" fill="none">
    <path d="M3 12H21" stroke="#373737" stroke-width="2" stroke-linecap="round" stroke-linejoin="round"/>
  </svg>

  <svg id="icon-circle-actions-success"
    xmlns="http://www.w3.org/2000/svg" viewBox="0 0 24 24" fill="none">
    <path d="M9 11.9497L11.1213 14.071L15.364 9.82839M23 12C23 18.0751 18.0751 23 12 23C5.92487 23 1 18.0751 1 12C1 5.92487 5.92487 1 12 1C18.0751 1 23 5.92487 23 12Z" stroke="#373737" stroke-width="2" stroke-linecap="round"/>
  </svg>

  <svg id="icon-circle-actions-close"
    xmlns="http://www.w3.org/2000/svg" viewBox="0 0 24 24" fill="none">
    <path d="M9 9L15 15M9 15L15 9M23 12C23 18.0751 18.0751 23 12 23C5.92487 23 1 18.0751 1 12C1 5.92487 5.92487 1 12 1C18.0751 1 23 5.92487 23 12Z" stroke="#373737" stroke-width="2" stroke-linecap="round" stroke-linejoin="round"/>
  </svg>

  <svg id="icon-circle-actions-alert-info"
    xmlns="http://www.w3.org/2000/svg" viewBox="0 0 24 24" fill="none">
    <path d="M12 7V12M12 16V16.5M23 12C23 18.0751 18.0751 23 12 23C5.92487 23 1 18.0751 1 12C1 5.92487 5.92487 1 12 1C18.0751 1 23 5.92487 23 12Z" stroke="#373737" stroke-width="2" stroke-linecap="round" stroke-linejoin="round"/>
  </svg>

  <svg id="icon-circle-actions-alert-question"
    xmlns="http://www.w3.org/2000/svg" viewBox="0 0 24 24" fill="none">
    <path d="M12 14V13.2295C12 12.2364 12.7627 11.4167 13.6133 10.9041C14.4344 10.4092 15.2185 9.5295 15 7.99999C14.5714 4.99997 10.5 6.5 10.5 6.5M12 17V17.5M23 12C23 18.0751 18.0751 23 12 23C5.92487 23 1 18.0751 1 12C1 5.92487 5.92487 1 12 1C18.0751 1 23 5.92487 23 12Z" stroke="#373737" stroke-width="2" stroke-linecap="round" stroke-linejoin="round"/>
  </svg>

  <svg id="icon-check"
    xmlns="http://www.w3.org/2000/svg" viewBox="0 0 24 24" fill="none">
    <path d="M4 12.3131L9.65685 17.97L20.9706 6.65625" stroke="#373737" stroke-width="2" stroke-linecap="round"/>
  </svg>

  <svg id="icon-mail"
    xmlns="http://www.w3.org/2000/svg" viewBox="0 0 26 24" fill="none">
    <path d="M1 6C1 4.89543 1.89543 4 3 4H23C24.1046 4 25 4.89543 25 6V19C25 20.1046 24.1046 21 23 21H3C1.89543 21 1 20.1046 1 19V6Z" stroke="#373737" stroke-width="2" stroke-linejoin="round"/>
    <path d="M2.42131 5.30287C1.91709 4.84067 2.24409 4 2.9281 4H23.0719C23.7559 4 24.0829 4.84067 23.5787 5.30287L15.0272 13.1418C13.8802 14.1931 12.1198 14.1931 10.9728 13.1418L2.42131 5.30287Z" stroke="#373737" stroke-width="2" stroke-linejoin="round"/>
  </svg>

  <svg id="icon-sound-playing"
    xmlns="http://www.w3.org/2000/svg" viewBox="0 0 24 24" fill="none">
    <path d="M1 9.16724V8.16724C0.447715 8.16724 0 8.61495 0 9.16724H1ZM10 5.16724H11C11 4.78283 10.7797 4.43245 10.4332 4.26593C10.0867 4.09941 9.67548 4.14623 9.37531 4.38637L10 5.16724ZM10 19.1672L9.37531 19.9481C9.67548 20.1882 10.0867 20.2351 10.4332 20.0685C10.7797 19.902 11 19.5516 11 19.1672H10ZM1 15.1672H0C0 15.7195 0.447715 16.1672 1 16.1672L1 15.1672ZM5 15.1672L5.62469 14.3864C5.44738 14.2445 5.22707 14.1672 5 14.1672V15.1672ZM5 9.16724V10.1672C5.22707 10.1672 5.44738 10.09 5.62469 9.94811L5 9.16724ZM20.4091 3.29289C20.0186 2.90237 19.3854 2.90237 18.9949 3.29289C18.6044 3.68342 18.6044 4.31658 18.9949 4.70711L20.4091 3.29289ZM22.0865 7.56866L21.1626 7.95134L22.0865 7.56866ZM22.0865 15.9877L23.0104 16.3704L22.0865 15.9877ZM18.9949 18.8492C18.6044 19.2398 18.6044 19.8729 18.9949 20.2635C19.3854 20.654 20.0186 20.654 20.4091 20.2635L18.9949 18.8492ZM16.1421 7.09612C15.7516 6.70559 15.1184 6.70559 14.7279 7.09612C14.3374 7.48664 14.3374 8.11981 14.7279 8.51033L16.1421 7.09612ZM16.7357 9.74976L15.8118 10.1324L16.7357 9.74976ZM16.7357 14.342L15.8118 13.9593L16.7357 14.342ZM14.7279 15.5814C14.3374 15.9719 14.3374 16.6051 14.7279 16.9956C15.1184 17.3861 15.7516 17.3861 16.1421 16.9956L14.7279 15.5814ZM9 5.16724V19.1672H11V5.16724H9ZM2 15.1672V9.16724H0V15.1672H2ZM10.6247 18.3864L5.62469 14.3864L4.3753 15.9481L9.37531 19.9481L10.6247 18.3864ZM5 14.1672H1V16.1672H5V14.1672ZM1 10.1672H5V8.16724H1V10.1672ZM5.62469 9.94811L10.6247 5.94811L9.37531 4.38637L4.3753 8.38637L5.62469 9.94811ZM18.9949 4.70711C19.9235 5.63569 20.6601 6.73808 21.1626 7.95134L23.0104 7.18597C22.4073 5.73007 21.5234 4.4072 20.4091 3.29289L18.9949 4.70711ZM21.1626 7.95134C21.6652 9.1646 21.9238 10.465 21.9238 11.7782H23.9238C23.9238 10.2023 23.6134 8.64188 23.0104 7.18597L21.1626 7.95134ZM21.9238 11.7782C21.9238 13.0914 21.6652 14.3918 21.1626 15.605L23.0104 16.3704C23.6134 14.9145 23.9238 13.354 23.9238 11.7782H21.9238ZM21.1626 15.605C20.6601 16.8183 19.9235 17.9207 18.9949 18.8492L20.4091 20.2635C21.5234 19.1492 22.4073 17.8263 23.0104 16.3704L21.1626 15.605ZM14.7279 8.51033C15.1922 8.97462 15.5605 9.52582 15.8118 10.1324L17.6595 9.36708C17.3078 8.5178 16.7921 7.74613 16.1421 7.09612L14.7279 8.51033ZM15.8118 10.1324C16.0631 10.7391 16.1924 11.3893 16.1924 12.0459H18.1924C18.1924 11.1266 18.0113 10.2164 17.6595 9.36708L15.8118 10.1324ZM16.1924 12.0459C16.1924 12.7025 16.0631 13.3527 15.8118 13.9593L17.6595 14.7246C18.0113 13.8754 18.1924 12.9651 18.1924 12.0459H16.1924ZM15.8118 13.9593C15.5605 14.5659 15.1922 15.1171 14.7279 15.5814L16.1421 16.9956C16.7921 16.3456 17.3078 15.5739 17.6595 14.7246L15.8118 13.9593Z" fill="#373737"/>
  </svg>

  <svg id="icon-sound-muted"
    xmlns="http://www.w3.org/2000/svg" viewBox="0 0 24 24" fill="none">
    <path d="M15 9L21.364 15.364M15 15.364L21.364 9.00005M1 9V15H5L10 19V5L5 9H1Z" stroke="#373737" stroke-width="2" stroke-linecap="round" stroke-linejoin="round"/>
  </svg>

  <svg id="icon-google-play"
    xmlns="http://www.w3.org/2000/svg" viewBox="0 0 33 32" fill="none">
    <path d="M4.92027 1.44727C4.75276 1.49683 4.60835 1.60438 4.51289 1.75068C4.41742 1.89697 4.37713 2.07246 4.39922 2.24575V30.2983C4.38521 30.4293 4.4135 30.5613 4.47994 30.675C4.54637 30.7888 4.64747 30.8783 4.76844 30.9304L19.6795 16.1064L4.92027 1.44727Z" fill="#4DB6AC"/>
    <path d="M23.7867 12.0269L17.6486 8.48303L5.72312 1.59688C5.48591 1.44407 5.19808 1.39077 4.92188 1.4485L19.6824 16.1076L23.7867 12.0269Z" fill="#DCE775"/>
    <path d="M5.44602 30.8252L23.816 20.2172L19.6752 16.1074L4.76831 30.9322C4.88218 30.9654 5.00198 30.973 5.11914 30.9545C5.2363 30.936 5.34792 30.8919 5.44602 30.8252Z" fill="#D32F2F"/>
    <path d="M29.8116 15.5057C29.2236 15.189 23.8268 12.0509 23.8268 12.0509L23.7819 12.0254L19.677 16.1061L23.8178 20.2159C27.0925 18.3249 29.5521 16.9033 29.7723 16.7776C30.4665 16.3781 30.3996 15.8253 29.8116 15.5057Z" fill="#FBC02D"/>
  </svg>


  <svg id='icon-app-store'
    xmlns="http://www.w3.org/2000/svg" viewBox="0 0 33 33" fill="none">
    <path d="M23.4703 1.14062C21.578 1.31785 19.806 2.14699 18.4574 3.48625C17.8547 4.05333 17.3952 4.75536 17.1166 5.53462C16.838 6.31388 16.7484 7.14812 16.855 7.96879C17.8001 7.96002 18.7332 7.75608 19.5958 7.36977C20.4584 6.98346 21.2319 6.4231 21.8678 5.72383C22.4605 5.1282 22.9121 4.4073 23.1894 3.61415C23.4667 2.821 23.5627 1.97577 23.4703 1.14062ZM23.5751 7.96551C20.7924 7.96551 19.6343 9.67276 17.7102 9.67276C15.7304 9.67276 13.9201 8.07355 11.5245 8.07355C8.26471 8.07518 3.30994 11.0944 3.30994 18.2074C3.30994 24.6787 9.17399 31.8604 12.4837 31.8604C14.4946 31.88 14.9816 30.5959 17.7094 30.5828C20.4372 30.5697 21.0298 31.8776 23.0431 31.8604C25.3102 31.8432 27.0804 29.3519 28.3744 27.3787C29.1673 26.2025 29.8456 24.9531 30.4 23.6475C25.0654 22.2954 24.0039 13.6929 30.4 11.9144C29.1961 9.85363 25.6719 7.96551 23.5751 7.96551Z" fill="#373737"/>
  </svg>

  <svg id="icon-flag-kazakhstan"
    xmlns="http://www.w3.org/2000/svg" width="30" height="24" viewBox="0 0 30 24" fill="none">
    <g clip-path="url(#clip0_549_13194)">
      <path fill-rule="evenodd" clip-rule="evenodd" d="M0 0.75H30V23.25H0V0.75Z" fill="#00ABC2"/>
      <path fill-rule="evenodd" clip-rule="evenodd" d="M2.81953 22.6431C2.97422 22.7931 2.92266 23.0415 3.34922 23.0087C3.99609 23.0087 4.01484 22.6149 4.01484 22.3384C4.01484 22.0618 3.04453 21.6774 2.99766 21.2696C2.95078 20.8618 3.22266 20.754 3.44766 20.754C3.66797 20.754 3.82266 20.8806 3.82266 20.9931C3.82266 21.1056 3.71953 21.1431 3.56016 21.1431C3.40078 21.1431 3.63047 21.0634 3.49453 21.0024C3.35859 20.9415 3.26953 21.0962 3.26953 21.1899C3.26953 21.2931 3.60703 21.3212 3.83203 21.2509C3.87891 21.4712 3.89766 21.4852 3.58359 21.8602C3.80859 21.7149 3.82734 21.6821 4.07578 21.7665C3.82734 21.5509 4.01484 21.1196 4.01953 21.0118C4.02422 20.904 3.97266 20.7727 3.87891 20.7071C3.69609 20.5431 3.30703 20.5337 3.07266 20.6415C2.73047 20.7915 2.71172 21.2415 2.80078 21.3915L3.74766 22.3477C3.81328 22.4602 3.84141 22.779 3.43828 22.7931C3.01641 22.8259 2.86641 22.2493 2.79141 22.0571C2.69297 22.2681 2.58047 22.8446 2.15391 22.8118C1.75078 22.7977 1.67578 22.4837 1.74141 22.3665L2.71172 21.3821C2.80547 21.2321 2.78672 20.7821 2.44453 20.6321C2.21016 20.5243 1.82109 20.5384 1.64297 20.6977C1.53984 20.7634 1.48359 20.8899 1.49297 21.0024C1.50234 21.1149 1.68516 21.5415 1.44141 21.7524C1.68516 21.6727 1.70859 21.7056 1.93359 21.8462C1.61953 21.4759 1.64297 21.4618 1.68516 21.2368C1.91016 21.3118 2.24766 21.2837 2.24766 21.1852C2.24766 21.0868 2.15391 20.9227 2.01797 20.9884C1.88672 21.054 2.11172 21.1337 1.95234 21.1337C1.79766 21.1337 1.68516 21.1009 1.68516 20.9931C1.68516 20.8852 1.83984 20.7446 2.06484 20.7446C2.28984 20.7446 2.55703 20.8571 2.51016 21.2649C2.46328 21.6727 1.47891 22.1134 1.47891 22.3899C1.47891 22.6712 1.54453 23.004 2.19141 23.004C2.61328 23.0368 2.66484 22.7884 2.81953 22.6384V22.6431Z" fill="#FFEC2D"/>
      <path fill-rule="evenodd" clip-rule="evenodd" d="M2.76875 16.845C2.92344 16.695 3.05 16.2544 3.47187 16.2825C4.11875 16.2825 4.3625 16.6435 4.3625 16.92C4.3625 17.1966 3.05 19.4513 3.00312 19.8591C2.95625 20.2669 3.22812 20.3794 3.44844 20.3794C3.67344 20.3794 3.82812 20.2529 3.82812 20.1357C3.82812 20.0185 3.71563 19.995 3.56094 19.995C3.40625 19.995 3.62656 20.0747 3.49531 20.1357C3.36406 20.1966 3.27031 20.0419 3.27031 19.9435C3.27031 19.845 3.60781 19.8122 3.83281 19.8872C3.875 19.6669 3.89375 19.6529 3.58437 19.2779C3.80938 19.4185 3.82812 19.456 4.07656 19.3716C3.82812 19.5872 4.01094 20.0138 4.02031 20.1216C4.02969 20.2294 3.97344 20.3653 3.875 20.431C3.69687 20.595 3.30312 20.5997 3.06875 20.4966C2.73125 20.3419 2.7125 19.8966 2.80156 19.7466L4.07656 16.9997C4.14687 16.8872 3.96875 16.5122 3.56562 16.4982C3.14375 16.4653 2.99844 16.9107 2.92344 17.1028L3.5 17.056C3.5 17.056 3.52344 17.1497 3.5 17.206C3.30655 17.2201 3.11406 17.2452 2.92344 17.281L2.9 17.5716H3.18125L3.1625 17.7029C3.1625 17.7029 2.92344 17.6841 2.9 17.7029C2.87656 17.7169 2.85313 17.9935 2.85313 17.9935C2.85313 17.9935 2.80625 18.0122 2.75938 18.0122C2.7125 18.0122 2.66563 17.9935 2.66563 17.9935C2.66563 17.9935 2.64687 17.7169 2.62344 17.7029C2.6 17.6841 2.36094 17.7029 2.36094 17.7029L2.3375 17.5716H2.62344L2.6 17.281C2.6 17.281 2.31875 17.2247 2.02344 17.206C2.00469 17.1497 2.02344 17.0607 2.02344 17.0607L2.6 17.1028C2.525 16.9107 2.37969 16.4653 1.95781 16.4935C1.55469 16.5122 1.37656 16.8872 1.44219 16.9997L2.71719 19.7466C2.80625 19.8919 2.7875 20.3419 2.45 20.4966C2.21562 20.5997 1.82187 20.5903 1.64375 20.431C1.54531 20.3653 1.48906 20.2341 1.49844 20.1263C1.50781 20.0185 1.68594 19.5825 1.44219 19.3763C1.69062 19.456 1.71406 19.4232 1.93437 19.2779C1.625 19.6529 1.64375 19.6669 1.69062 19.8872C1.91094 19.8122 2.24844 19.8403 2.24844 19.9435C2.24844 20.0372 2.15469 20.2013 2.02344 20.1357C1.89219 20.07 2.11719 19.995 1.95781 19.995C1.80312 19.995 1.69062 20.0232 1.69062 20.1357C1.69062 20.2482 1.84531 20.3794 2.06562 20.3794C2.28594 20.3794 2.55781 20.2669 2.51562 19.8638C2.46875 19.456 1.15625 17.1919 1.15625 16.92C1.15625 16.6388 1.4 16.2872 2.04688 16.2872C2.46875 16.2544 2.62344 16.695 2.77344 16.845H2.76875Z" fill="#FFEC2D"/>
      <path fill-rule="evenodd" clip-rule="evenodd" d="M2.76875 15.7231C2.92344 15.8731 3.05 16.3137 3.47187 16.2856C4.11875 16.2856 4.3625 15.9247 4.3625 15.6481C4.3625 15.3716 3.05 13.1169 3.00312 12.7091C2.95625 12.3012 3.22812 12.1887 3.44844 12.1887C3.67344 12.1887 3.82812 12.3153 3.82812 12.4325C3.82812 12.5497 3.71563 12.5731 3.56094 12.5731C3.40625 12.5731 3.62656 12.4981 3.49531 12.4325C3.36406 12.3669 3.27031 12.5262 3.27031 12.6247C3.27031 12.7231 3.60781 12.7559 3.83281 12.6809C3.875 12.9012 3.89375 12.9153 3.58437 13.2903C3.80938 13.1497 3.82812 13.1122 4.07656 13.1966C3.82812 12.9809 4.01094 12.5544 4.02031 12.4466C4.02969 12.3387 3.97344 12.2028 3.875 12.1372C3.69687 11.9778 3.30312 11.9684 3.06875 12.0716C2.73125 12.2262 2.7125 12.6716 2.80156 12.8216L4.07656 15.5637C4.14687 15.6762 3.96875 16.0512 3.56562 16.0653C3.14375 16.0981 2.99844 15.6528 2.92344 15.4606L3.5 15.5075C3.5 15.5075 3.52344 15.4137 3.5 15.3575C3.30655 15.3434 3.11406 15.3183 2.92344 15.2825L2.9 14.9919H3.18125L3.1625 14.8606C3.1625 14.8606 2.92344 14.8794 2.9 14.8606C2.87656 14.8466 2.85313 14.57 2.85313 14.57C2.85313 14.57 2.80625 14.5512 2.75938 14.5512C2.7125 14.5512 2.66563 14.57 2.66563 14.57C2.66563 14.57 2.64687 14.8466 2.62344 14.8606C2.6 14.8794 2.36094 14.8606 2.36094 14.8606L2.3375 14.9919H2.62344L2.6 15.2825C2.6 15.2825 2.31875 15.3387 2.02344 15.3575C2.00469 15.4137 2.02344 15.5028 2.02344 15.5028L2.6 15.4606C2.525 15.6528 2.37969 16.0981 1.95781 16.07C1.55469 16.0512 1.37656 15.6762 1.44219 15.5637L2.71719 12.8216C2.80625 12.6716 2.7875 12.2262 2.45 12.0716C2.21562 11.9684 1.82187 11.9778 1.64375 12.1372C1.54531 12.2028 1.48906 12.3341 1.49844 12.4419C1.50781 12.5497 1.68594 12.9809 1.44219 13.1919C1.69062 13.1122 1.71406 13.145 1.93437 13.2903C1.625 12.9153 1.64375 12.9012 1.69062 12.6809C1.91094 12.7559 2.24844 12.7278 2.24844 12.6247C2.24844 12.5309 2.15469 12.3669 2.02344 12.4325C1.89219 12.4981 2.11719 12.5731 1.95781 12.5731C1.80312 12.5731 1.69062 12.545 1.69062 12.4325C1.69062 12.32 1.84531 12.1887 2.06562 12.1887C2.28594 12.1887 2.55781 12.3012 2.51562 12.7044C2.46875 13.1122 1.15625 15.3762 1.15625 15.6481C1.15625 15.9294 1.4 16.2809 2.04688 16.2809C2.46875 16.3137 2.62344 15.8731 2.77344 15.7231H2.76875Z" fill="#FFEC2D"/>
      <path fill-rule="evenodd" clip-rule="evenodd" d="M2.76875 8.27863C2.92344 8.12863 3.05 7.68801 3.47187 7.71613C4.11875 7.71613 4.3625 8.07707 4.3625 8.35363C4.3625 8.63019 3.05 10.8849 3.00312 11.2974C2.95625 11.7005 3.22812 11.813 3.44844 11.813C3.67344 11.813 3.82812 11.6864 3.82812 11.5739C3.82812 11.4614 3.71563 11.4239 3.56094 11.4239C3.40625 11.4239 3.62656 11.5083 3.49531 11.5739C3.36406 11.6396 3.27031 11.4755 3.27031 11.3771C3.27031 11.2833 3.60781 11.2458 3.83281 11.3208C3.875 11.1005 3.89375 11.0864 3.58437 10.7114C3.80938 10.8568 3.82812 10.8896 4.07656 10.8052C3.82812 11.0208 4.01094 11.4521 4.02031 11.5552C4.02969 11.6583 3.97344 11.7989 3.875 11.8646C3.69687 12.0286 3.30312 12.0333 3.06875 11.9302C2.73125 11.7755 2.7125 11.3302 2.80156 11.1802L4.07656 8.43801C4.14687 8.32551 3.96875 7.95051 3.56562 7.93644C3.14375 7.90363 2.99844 8.34894 2.92344 8.54113L3.5 8.49426C3.5 8.49426 3.52344 8.58801 3.5 8.64426C3.2 8.66301 2.92344 8.71926 2.92344 8.71926L2.9 9.00988H3.18125L3.1625 9.14113C3.1625 9.14113 2.92344 9.12707 2.9 9.14113C2.87656 9.15519 2.85313 9.43644 2.85313 9.43644C2.85313 9.43644 2.80625 9.45051 2.75938 9.45051C2.7125 9.45051 2.66563 9.43644 2.66563 9.43644C2.66563 9.43644 2.64687 9.15519 2.62344 9.14113C2.6 9.12707 2.36094 9.14113 2.36094 9.14113L2.3375 9.00988H2.62344L2.6 8.71926C2.6 8.71926 2.31875 8.66301 2.02344 8.64426C2.00469 8.58801 2.02344 8.49894 2.02344 8.49894L2.6 8.54113C2.525 8.34894 2.37969 7.90363 1.95781 7.93176C1.55469 7.95051 1.37656 8.32551 1.44219 8.43801L2.71719 11.1802C2.80625 11.3302 2.7875 11.7755 2.45 11.9302C2.21562 12.0333 1.82187 12.0239 1.64375 11.8646C1.54531 11.7989 1.48906 11.6677 1.49844 11.5599C1.50781 11.4521 1.68594 11.0208 1.44219 10.8099C1.69062 10.8896 1.71406 10.8568 1.93437 10.7114C1.625 11.0864 1.64375 11.1005 1.69062 11.3208C1.91094 11.2458 2.24844 11.2786 2.24844 11.3771C2.24844 11.4708 2.15469 11.6349 2.02344 11.5693C1.89219 11.5083 2.11719 11.4286 1.95781 11.4286C1.80312 11.4286 1.69062 11.4568 1.69062 11.5693C1.69062 11.6818 1.84531 11.813 2.06562 11.813C2.28594 11.813 2.55781 11.7005 2.51562 11.2974C2.46875 10.8896 1.15625 8.63019 1.15625 8.35363C1.15625 8.07707 1.4 7.72082 2.04688 7.72082C2.46875 7.68801 2.62344 8.12863 2.77344 8.28332L2.76875 8.27863Z" fill="#FFEC2D"/>
      <path fill-rule="evenodd" clip-rule="evenodd" d="M2.76875 7.15671C2.92344 7.30671 3.05 7.75202 3.47187 7.71921C4.11875 7.71921 4.3625 7.35827 4.3625 7.08171C4.3625 6.80515 3.05 4.55046 3.00312 4.14265C2.95625 3.73484 3.22812 3.62234 3.44844 3.62234C3.67344 3.62234 3.82812 3.75359 3.82812 3.86609C3.82812 3.97859 3.71563 4.0114 3.56094 4.0114C3.40625 4.0114 3.62656 3.93171 3.49531 3.86609C3.36406 3.80046 3.27031 3.95984 3.27031 4.05827C3.27031 4.15671 3.60781 4.18952 3.83281 4.11452C3.875 4.33484 3.89375 4.3489 3.58437 4.7239C3.80938 4.58327 3.82812 4.54577 4.07656 4.63015C3.82812 4.41921 4.01094 3.98796 4.02031 3.88015C4.02969 3.77234 3.97344 3.6364 3.875 3.57077C3.69687 3.4114 3.30312 3.40202 3.06875 3.50984C2.73125 3.65984 2.7125 4.10984 2.80156 4.25515L4.07656 7.00202C4.14687 7.11452 3.96875 7.48952 3.56562 7.50827C3.14375 7.5364 2.99844 7.09577 2.92344 6.8989L3.5 6.94577C3.5 6.94577 3.52344 6.85202 3.5 6.79577C3.30666 6.78304 3.11417 6.75957 2.92344 6.72546L2.9 6.43015H3.18125L3.1625 6.2989C3.1625 6.2989 2.92344 6.31765 2.9 6.2989C2.87656 6.28484 2.85313 6.00827 2.85313 6.00827C2.85313 6.00827 2.80625 5.98952 2.75938 5.98952C2.7125 5.98952 2.66563 6.00827 2.66563 6.00827C2.66563 6.00827 2.64687 6.28484 2.62344 6.2989C2.6 6.31765 2.36094 6.2989 2.36094 6.2989L2.3375 6.43015H2.62344L2.6 6.72546C2.6 6.72546 2.31875 6.77702 2.02344 6.79577C2.00469 6.85671 2.02344 6.94577 2.02344 6.94577L2.6 6.8989C2.525 7.09577 2.37969 7.5364 1.95781 7.50827C1.55469 7.48952 1.37656 7.11452 1.44219 7.00202L2.71719 4.25515C2.80625 4.10984 2.7875 3.65984 2.45 3.50515C2.21562 3.40202 1.82187 3.4114 1.64375 3.57077C1.54531 3.6364 1.48906 3.76765 1.49844 3.87546C1.50781 3.98327 1.68594 4.41921 1.44219 4.62546C1.69062 4.54577 1.71406 4.57859 1.93437 4.7239C1.625 4.3489 1.64375 4.33484 1.69062 4.11452C1.91562 4.18952 2.24844 4.1614 2.24844 4.05827C2.24844 3.96452 2.15469 3.80046 2.02344 3.86609C1.89219 3.93171 2.11719 4.0114 1.95781 4.0114C1.80312 4.0114 1.69062 3.97859 1.69062 3.86609C1.69062 3.75359 1.84531 3.62234 2.06562 3.62234C2.28594 3.62234 2.5625 3.73484 2.51562 4.13796C2.46875 4.54577 1.15625 6.80984 1.15625 7.08171C1.15625 7.36296 1.4 7.71921 2.04688 7.71921C2.46875 7.75202 2.62344 7.30671 2.77344 7.15671H2.76875Z" fill="#FFEC2D"/>
      <path fill-rule="evenodd" clip-rule="evenodd" d="M2.81953 1.36076C2.97422 1.21076 2.92266 0.962326 3.34922 0.995139C3.99609 0.995139 4.01484 1.38889 4.01484 1.66545C4.01484 1.94201 3.04453 2.32639 2.99766 2.7342C2.95078 3.14201 3.22266 3.24983 3.44766 3.24983C3.66797 3.24983 3.82266 3.12326 3.82266 3.01076C3.82266 2.89826 3.71953 2.86076 3.56016 2.86076C3.40078 2.86076 3.63047 2.94045 3.49453 3.00139C3.35859 3.06233 3.26953 2.90764 3.26953 2.81389C3.26953 2.71076 3.60703 2.67795 3.83203 2.75295C3.87891 2.53264 3.89766 2.51858 3.58359 2.14358C3.80859 2.28889 3.82734 2.3217 4.07578 2.23733C3.82734 2.45295 4.01484 2.8842 4.01953 2.99201C4.02422 3.09983 3.97266 3.23108 3.87891 3.2967C3.69141 3.47014 3.30234 3.47014 3.06797 3.36701C2.72578 3.21701 2.70703 2.76701 2.79609 2.61701L3.74766 1.65608C3.81328 1.54358 3.84141 1.22483 3.43828 1.21076C3.01641 1.17795 2.86641 1.75451 2.79141 1.9467C2.69297 1.73576 2.58047 1.15451 2.15391 1.18733C1.75078 1.20139 1.67578 1.51545 1.74141 1.63264L2.71172 2.61701C2.80547 2.76701 2.78672 3.21701 2.44453 3.36701C2.21016 3.47483 1.82109 3.46545 1.64297 3.30139C1.53984 3.23576 1.48359 3.1092 1.49297 2.9967C1.50234 2.8842 1.68516 2.45764 1.44141 2.2467C1.68516 2.32639 1.70859 2.29358 1.92891 2.15295C1.61953 2.52326 1.64297 2.53733 1.68516 2.76233C1.91016 2.68733 2.24766 2.71545 2.24766 2.81389C2.24766 2.91233 2.15391 3.07639 2.01797 3.01076C1.88672 2.94514 2.11172 2.86545 1.95234 2.86545C1.79766 2.86545 1.68516 2.89826 1.68516 3.00608C1.68516 3.11389 1.83984 3.25451 2.06484 3.25451C2.28984 3.25451 2.55703 3.14201 2.51016 2.7342C2.46328 2.32639 1.47891 1.88576 1.47891 1.6092C1.47891 1.32795 1.54453 0.995139 2.19141 0.995139C2.61328 0.962326 2.66484 1.21076 2.81953 1.36076Z" fill="#FFEC2D"/>
      <path d="M20.6947 10.4021C20.6947 8.17367 18.7886 6.36719 16.4372 6.36719C14.0858 6.36719 12.1797 8.17367 12.1797 10.4021C12.1797 12.6305 14.0858 14.437 16.4372 14.437C18.7886 14.437 20.6947 12.6305 20.6947 10.4021Z" fill="#FFEC2D"/>
      <path fill-rule="evenodd" clip-rule="evenodd" d="M16.2368 3.95813C16.1968 3.95813 16.0067 5.29892 15.9366 5.5991C15.8666 6.2745 16.8371 6.24949 16.6771 5.57409L16.2368 3.95312V3.95813ZM16.577 16.9558C16.612 16.9558 16.9022 15.6301 16.9972 15.3349C17.1123 14.6695 16.1417 14.6345 16.2468 15.3149L16.577 16.9558ZM9.79297 10.3719C9.79297 10.407 11.1888 10.6871 11.499 10.7772C12.1994 10.8922 12.2494 9.9767 11.529 10.0768L9.79297 10.3769V10.3719ZM23.386 10.532C23.386 10.497 21.9752 10.2669 21.66 10.1868C20.9546 10.1018 20.9496 11.0173 21.66 10.8922L23.386 10.532ZM11.2238 6.11941C11.1988 6.14443 12.1193 7.18504 12.3045 7.44019C12.7847 7.94049 13.4201 7.24008 12.7847 6.89987L11.2238 6.12441V6.11941ZM21.7851 14.6745C21.8101 14.6495 20.7995 13.6889 20.5894 13.4538C20.0641 12.9935 19.4987 13.7389 20.1591 14.0291L21.7851 14.6795V14.6745ZM13.3301 4.66855C13.3 4.68356 13.7303 5.97432 13.8003 6.27951C14.0405 6.91488 14.911 6.49964 14.4607 5.95431L13.3351 4.66855H13.3301ZM19.4887 16.2954C19.5237 16.2804 19.1885 14.9647 19.1435 14.6595C18.9484 14.0091 18.0529 14.3593 18.4581 14.9396L19.4937 16.2904L19.4887 16.2954ZM21.0046 5.56908C20.9746 5.54407 19.8639 6.39958 19.5938 6.56968C19.0585 7.01994 19.7839 7.63031 20.1541 7.03495L21.0046 5.56908ZM11.8492 15.2598C11.8742 15.2848 13.0499 14.5094 13.3301 14.3543C13.8954 13.9441 13.22 13.2837 12.8048 13.854L11.8542 15.2598H11.8492ZM10.0981 8.05056C10.0831 8.08057 11.2989 8.78599 11.564 8.9711C12.1894 9.2963 12.5546 8.44579 11.8392 8.31071L10.0981 8.05056ZM22.7907 12.9735C22.8057 12.9435 21.64 12.158 21.3898 11.9579C20.7895 11.5877 20.3642 12.4131 21.0697 12.5933L22.7907 12.9735ZM18.7583 4.32334C18.7233 4.31334 18.0279 5.49404 17.8427 5.74919C17.8431 5.83067 17.8689 5.91 17.9166 5.97605C17.9643 6.0421 18.0315 6.09156 18.1088 6.11749C18.186 6.14342 18.2694 6.14453 18.3473 6.12065C18.4252 6.09676 18.4937 6.0491 18.5432 5.98433L18.7583 4.32334ZM14.0605 16.5456C14.0955 16.5606 14.876 15.4249 15.0761 15.1798C15.4413 14.5994 14.5558 14.2292 14.3907 14.8996L14.0605 16.5456ZM10.1832 13.0785C10.1982 13.1086 11.584 12.7784 11.9092 12.7283C12.5896 12.5382 12.2094 11.6977 11.609 12.088L10.1832 13.0785ZM22.7957 7.94049C22.7857 7.91047 21.3798 8.14561 21.0546 8.17563C20.3542 8.32072 20.6794 9.18623 21.3048 8.83602L22.7957 7.94049Z" fill="#FFEC2D"/>
      <path fill-rule="evenodd" clip-rule="evenodd" d="M17.6184 4.04407C17.5834 4.03906 17.1131 5.31482 16.9731 5.59499C16.7679 6.24537 17.7235 6.40547 17.7085 5.71506L17.6234 4.03906L17.6184 4.04407ZM15.192 16.8467C15.227 16.8567 15.7924 15.6109 15.9524 15.3358C16.2026 14.7054 15.262 14.4853 15.227 15.1707L15.187 16.8467H15.192ZM14.7067 4.16914C14.6717 4.17915 14.8018 5.52995 14.8018 5.84013C14.8968 6.50553 15.8324 6.27539 15.5222 5.65502L14.7067 4.16914ZM18.1087 16.7716C18.1437 16.7666 18.1087 15.4108 18.1337 15.1006C18.0887 14.4252 17.1331 14.5953 17.4033 15.2357L18.1037 16.7716H18.1087ZM12.2953 5.2898C12.2653 5.30982 12.9307 6.50553 13.0557 6.7907C13.4159 7.37604 14.1914 6.82572 13.6461 6.36044L12.2953 5.2898ZM20.5402 15.691C20.5702 15.671 19.9898 14.4302 19.8898 14.1401C19.5746 13.5347 18.7641 14.035 19.2694 14.5303L20.5402 15.691ZM10.5342 6.9708C10.5142 7.00082 11.5899 7.89135 11.815 8.12149C12.3703 8.54173 12.8856 7.76127 12.2052 7.51613L10.5342 6.9708ZM22.2512 13.9599C22.2712 13.9299 21.2656 12.9694 21.0555 12.7292C20.5352 12.2739 19.9648 13.0194 20.6252 13.3096L22.2512 13.9599ZM9.76378 9.06705C9.75377 9.10207 11.0796 9.60737 11.3697 9.75245C12.0401 9.97759 12.2553 9.08205 11.5248 9.06204L9.76378 9.06705ZM23.1417 11.9588C23.1567 11.9287 21.871 11.3384 21.5908 11.1733C20.9404 10.9031 20.6552 11.7837 21.3807 11.8537L23.1417 11.9588ZM9.71875 11.6436C9.72375 11.6736 11.1546 11.6536 11.4798 11.6786C12.1902 11.6436 12.0201 10.738 11.3397 10.9832L9.71875 11.6436ZM23.2368 9.39224C23.2368 9.35722 21.8059 9.28217 21.4857 9.23715C20.7703 9.22714 20.8754 10.1427 21.5708 9.93756L23.2368 9.38724V9.39224ZM10.9445 14.3152C10.9645 14.3452 12.2452 13.7348 12.5454 13.6197C13.1658 13.2946 12.5955 12.5491 12.1002 13.0544L10.9445 14.3152ZM22.0661 6.69564C22.0461 6.66562 20.7303 7.19093 20.4151 7.28599C19.7697 7.57116 20.285 8.35162 20.8153 7.88134L22.0661 6.69564ZM13.0257 16.0862C13.0557 16.1012 13.9713 15.0606 14.2014 14.8405C14.6367 14.3052 13.8012 13.8399 13.556 14.4903L13.0257 16.0862ZM20.0149 4.88957C19.9898 4.86956 18.9993 5.84513 18.7541 6.05026C18.2838 6.55556 19.0843 7.07586 19.3745 6.44549L20.0099 4.88957H20.0149Z" fill="#FFEC2D"/>
      <path fill-rule="evenodd" clip-rule="evenodd" d="M9.92801 13.0838C10.0044 13.3418 10.0154 14.7867 11.5549 16.18C13.0835 17.563 15.7039 17.8726 15.7039 17.8726C15.7039 17.8726 15.7148 18.0687 15.5292 18.079C15.3436 18.0996 14.4483 17.9242 14.0006 17.79C13.5639 17.6662 13.1708 17.4391 13.1271 17.4494C13.0725 17.4701 12.9852 17.6146 12.8542 17.5939C12.7231 17.5733 12.0899 16.954 11.806 16.7889C11.2382 16.325 10.7355 15.7944 10.3102 15.2099C10.0044 14.7454 9.92801 14.4358 9.82975 14.4358C9.73148 14.4358 9.37117 14.6629 9.37117 14.6629C9.37117 14.6629 9.04362 14.1984 8.75973 13.4554C8.46494 12.7123 8.49769 12.2788 8.5632 12.2478C8.63963 12.2169 8.63963 12.7948 8.858 13.3212C9.07637 13.8579 9.38209 14.023 9.38209 14.023C9.38209 14.023 9.18556 13.7443 9.0327 13.0529C8.87984 12.3614 8.81433 11.6905 8.92351 11.4841C9.0327 11.2777 9.13096 11.2158 9.14188 11.2261C9.16372 11.2467 8.95627 11.546 9.09821 12.3407C9.24015 13.1354 9.6223 13.8063 9.70964 13.7753C9.79699 13.7443 9.65505 13.5792 9.60046 13.1148C9.54587 12.6504 9.65505 12.3614 9.77516 12.3201C9.82975 12.2788 9.91709 12.8361 9.92801 13.0838ZM8.858 14.4049C8.5632 14.1468 8.10463 13.2489 8.00636 13.2902C7.89718 13.3418 8.74882 14.6319 8.77065 14.7351C8.79249 14.859 8.97811 15.2099 8.83617 15.1583C8.69423 15.1067 7.67881 14.0952 7.79891 14.2913C7.91901 14.4874 8.6833 15.375 8.63963 15.4266C8.59596 15.4782 8.00636 14.9312 7.98452 15.0035C7.9736 15.0654 8.5632 15.602 8.55228 15.664C8.54137 15.7259 8.17014 15.3234 8.17014 15.406C8.17014 15.4885 8.55228 15.891 8.55228 15.953C8.55228 16.0149 8.22473 15.664 8.33391 15.8497C8.43218 16.0562 8.71606 16.2316 8.70514 16.2935C8.69422 16.3555 8.46494 16.211 8.46494 16.2419C8.46494 16.2729 8.89076 16.4174 8.98902 16.5309C9.09821 16.6444 9.79699 17.4082 10.3211 17.79C10.8452 18.1719 12.3519 18.8427 12.4611 18.8427C12.5594 18.8427 12.7122 18.6363 12.6795 18.5537C12.6467 18.4712 11.1727 17.9964 10.7687 17.6455C10.3538 17.2946 9.34933 16.4483 9.26199 16.4071C9.18556 16.3555 8.95627 16.3761 8.95627 16.3245C8.95627 16.2729 9.25107 16.3555 9.22923 16.3245C9.21831 16.2935 8.82525 16.1284 8.83617 16.0974C8.858 16.0665 9.10913 16.1594 9.10913 16.1284C9.10913 16.0974 8.65055 15.8601 8.67239 15.8085C8.68331 15.7569 9.01086 15.9529 9.01086 15.9117C9.01086 15.891 8.57412 15.602 8.58504 15.5504C8.59596 15.4988 8.92351 15.7775 8.91259 15.7156C8.90167 15.6537 8.65055 15.3028 8.65055 15.2615C8.65055 15.2099 9.04362 15.6124 9.08729 15.5298C9.10913 15.4576 8.94535 14.7867 8.95627 14.7764C8.96719 14.7661 9.25107 14.9209 9.29474 14.828C9.34933 14.7248 9.09821 14.5906 8.858 14.4049ZM13.8914 19.4826C13.684 19.5136 13.5857 19.4413 13.7058 19.2762C13.8696 19.2762 14.3063 19.142 14.4592 19.0801C14.612 19.0182 14.7758 18.9356 14.9068 18.8221C15.0379 18.6879 15.1252 18.8943 15.0488 19.0079C14.9942 19.0801 14.7431 19.2143 14.5574 19.2865C14.2845 19.3691 14.0443 19.4929 13.8914 19.4826ZM15.2562 18.9563C15.1143 18.8118 15.2344 18.7086 15.4418 18.595C15.7476 18.4402 15.6602 18.2235 16.0533 18.048C16.228 17.9448 18.6737 17.016 19.4708 16.5206C20.2678 16.0252 22.5061 14.4255 23.1066 13.3212C23.6962 12.2272 23.4123 12.1446 23.4997 12.1034C23.5761 12.0518 23.6635 12.2582 23.6525 12.5059C23.6307 12.7432 23.4342 13.4657 23.4997 13.5379C23.5652 13.6102 24.395 12.9703 24.7444 12.1962C25.0938 11.4222 25.3558 10.6172 25.5196 10.6172C25.6943 10.6172 25.2357 11.9382 24.9409 12.4543C24.657 12.9703 24.3186 13.2283 24.395 13.3418C24.4823 13.445 25.334 12.7742 25.6288 12.2788C25.9127 11.7731 26.1856 11.3293 26.2402 11.4222C26.1533 12.0268 25.9012 12.5995 25.5087 13.0838C25.0501 13.5792 24.5042 13.9404 24.5915 14.0127C24.668 14.0952 25.2903 14.1778 25.9345 13.765C26.5896 13.3418 26.6551 12.7329 26.7316 12.7639C26.8189 12.7948 26.6551 13.6308 26.0328 14.1468C25.4104 14.6629 24.5915 14.7145 24.6134 14.828C24.657 14.9312 26.3931 14.3533 26.3603 14.4874C26.3276 14.6113 24.1111 15.4369 24.0893 15.5195C24.0893 15.5814 24.4714 15.602 25.0719 15.4679C25.6615 15.344 26.2293 14.9002 26.3057 15.0035C26.3276 15.1479 25.8799 15.4988 25.203 15.664C24.5151 15.8291 24.1766 16.0458 24.1548 16.0974C24.1439 16.149 25.3777 15.9529 25.3777 16.0149C25.3777 16.0768 23.7617 16.3761 23.7508 16.4587C23.729 16.5309 25.2794 16.1594 25.2576 16.2522C25.2139 16.3245 23.1503 16.9024 23.1721 16.9334C23.183 16.9747 24.8972 16.5825 24.8645 16.6444C24.8208 16.7167 21.982 17.4701 21.9602 17.5217C21.9383 17.563 24.4714 16.985 24.4496 17.0366C24.4278 17.0882 23.1394 17.3875 23.1394 17.4185C23.1394 17.4494 24.1766 17.2637 24.1548 17.3153C24.1439 17.3566 21.5344 17.9861 21.4798 18.079C21.4252 18.1822 22.8337 17.821 22.8118 18.0068C22.79 18.1925 19.7874 19.142 19.7765 18.9666C19.7546 18.7911 21.5999 18.3473 21.5889 18.2957C21.5671 18.2441 20.5299 18.3989 20.508 18.3061C20.4971 18.2028 21.1959 17.9964 21.1413 17.9552C21.0867 17.9035 20.5626 18.0996 20.6063 17.9861C20.6609 17.8726 21.6545 17.4391 21.6326 17.4082C21.6217 17.3772 21.2723 17.5114 21.3051 17.4082C21.3487 17.2946 23.456 16.7167 23.4233 16.6444C23.3905 16.5825 22.4515 16.7889 22.3642 16.8096C22.3314 16.7476 23.6744 16.2729 23.6525 16.1903C23.6089 16.1181 22.9319 16.469 22.8882 16.3761C22.8664 16.2729 24.0784 15.8291 24.0019 15.7569C23.9255 15.6846 23.3796 15.9426 23.3031 15.8704C23.2267 15.7981 24.4496 15.0035 24.264 14.9828C24.0784 14.9725 23.8491 15.2305 23.8272 15.0654C23.8491 14.859 24.7771 14.5184 24.5697 14.3533C24.2421 14.2604 23.1394 14.4255 22.6808 14.6835C22.2222 14.9415 20.6936 16.3761 20.3224 16.6031C19.9512 16.8199 18.6846 17.3256 18.4444 17.4288C18.0732 17.5526 18.0077 17.7384 17.6255 17.9242C16.9377 18.0996 16.9486 18.2957 16.621 18.4093C16.5009 18.4402 15.2671 18.9975 15.2562 18.9563ZM13.5311 19.6787C13.3237 19.7819 13.138 20.0296 13.2581 20.1328C13.3237 20.2567 13.5311 19.8541 13.6949 19.8748L14.5684 19.9161C15.0379 19.947 15.2671 19.8232 15.5292 19.8438C15.7912 19.8645 16.3699 19.7097 16.6429 19.7097C16.9158 19.7097 16.9704 19.7406 16.9923 19.6271C17.025 19.5239 16.1406 19.5961 15.7476 19.5858C15.3545 19.5652 14.8632 19.6581 14.5684 19.6581C14.2954 19.6477 13.8259 19.5652 13.5311 19.6787Z" fill="#FFEC2D"/>
      <path d="M14.84 19.5532C14.84 19.4677 14.7569 19.3984 14.6544 19.3984C14.5519 19.3984 14.4688 19.4677 14.4688 19.5532C14.4688 19.6387 14.5519 19.7081 14.6544 19.7081C14.7569 19.7081 14.84 19.6387 14.84 19.5532Z" fill="#FFEC2D"/>
      <path fill-rule="evenodd" clip-rule="evenodd" d="M19.1973 19.2538C19.3829 19.2229 19.8851 19.388 20.2345 19.4602C20.8678 19.6976 22.047 19.5841 22.047 19.6976C22.047 19.8111 21.9706 19.9453 21.6976 19.9659C21.4246 19.9866 20.7368 19.8627 20.7586 19.8627C20.7804 19.8627 21.3045 20.1001 21.1517 20.162C20.9988 20.224 20.5512 20.0279 20.4747 20.0795C20.3983 20.1311 20.8896 20.224 20.8023 20.2549C20.7368 20.2859 20.3983 20.2136 20.2891 20.224C20.1799 20.2446 20.3765 20.3581 20.2454 20.3994C20.1144 20.451 19.896 20.3375 19.8087 20.3684C19.7104 20.3994 20.0052 20.5749 19.8742 20.5955C19.7432 20.6161 19.4375 20.5129 19.2628 20.4923C19.0881 20.4923 19.4266 20.6574 19.3174 20.6781C19.2082 20.6884 18.9025 20.5439 18.826 20.5439C18.7496 20.5439 18.826 20.7503 18.7169 20.7503C18.6077 20.7503 18.4766 20.5749 18.4111 20.5749C18.3456 20.5749 18.4111 20.7813 18.3019 20.7813C18.1928 20.7813 18.1491 20.5645 18.0617 20.5749C17.9526 20.5955 18.0617 20.8535 17.9089 20.8329C17.7669 20.8226 17.7451 20.5645 17.625 20.5749C17.5158 20.5955 17.6468 20.8329 17.5377 20.8329C17.4285 20.8329 17.4066 20.5955 17.2974 20.5749C17.1883 20.5645 17.2319 20.8019 17.1664 20.8019C17.1009 20.8019 17.0354 20.5749 16.9917 20.5749C16.959 20.5749 16.9917 20.8019 16.8607 20.7813C16.7297 20.7606 16.7297 20.5336 16.6969 20.5439C16.6533 20.5645 16.6533 20.7297 16.5659 20.7297C16.4786 20.7297 16.4676 20.5645 16.4349 20.5852C16.3912 20.5955 16.2602 20.8019 16.1728 20.771C16.0746 20.74 16.1947 20.5749 16.151 20.5749C16.1073 20.5749 15.9981 20.6884 15.9326 20.6781C15.8671 20.6677 15.9326 20.5336 15.9108 20.5336C15.889 20.5336 15.7252 20.6161 15.6488 20.6161C15.5723 20.6161 15.3649 20.7194 15.3103 20.6265C15.2557 20.5233 15.4522 20.5233 15.4959 20.4304C15.5287 20.3375 15.3867 20.0588 15.5396 19.9659C15.6815 19.8627 16.151 20.1001 16.8498 19.935C18.1163 19.615 19.099 19.2435 19.1973 19.2538Z" fill="#FFEC2D"/>
    </g>
    <rect x="0.25" y="1" width="29.5" height="22" stroke="black" stroke-width="0.5"/>
    <defs>
      <clipPath id="clip0_549_13194">
        <rect y="0.75" width="30" height="22.5" fill="white"/>
      </clipPath>
    </defs>
  </svg>

  <svg id="icon-flag-bulgaria"
    xmlns="http://www.w3.org/2000/svg" width="30" height="23" viewBox="0 0 30 23" fill="none">
    <g clip-path="url(#clip0_549_5158)">
      <path fill-rule="evenodd" clip-rule="evenodd" d="M0 15.25H30V22.75H0V15.25Z" fill="#D62612"/>
      <path fill-rule="evenodd" clip-rule="evenodd" d="M0 0.25H30V7.75H0V0.25Z" fill="white"/>
      <path fill-rule="evenodd" clip-rule="evenodd" d="M0 7.75H30V15.25H0V7.75Z" fill="#00966E"/>
    </g>
    <rect x="0.25" y="0.5" width="29.5" height="22" stroke="black" stroke-width="0.5"/>
    <defs>
      <clipPath id="clip0_549_5158">
        <rect y="0.25" width="30" height="22.5" fill="white"/>
      </clipPath>
    </defs>
  </svg>

  <svg id="icon-flag-germany"
    xmlns="http://www.w3.org/2000/svg" width="30" height="24" viewBox="0 0 30 24" fill="none">
    <g clip-path="url(#clip0_423_3630)">
      <path d="M0 15.75H30V23.25H0V15.75Z" fill="#FFCE00"/>
      <path d="M0 0.75H30V8.25H0V0.75Z" fill="black"/>
      <path d="M0 8.25H30V15.75H0V8.25Z" fill="#DD0000"/>
    </g>
    <rect x="0.25" y="1" width="29.5" height="22" stroke="black" stroke-width="0.5"/>
    <defs>
      <clipPath id="clip0_423_3630">
        <rect y="0.75" width="30" height="22.5" fill="white"/>
      </clipPath>
    </defs>
  </svg>

  <svg id="icon-flag-swiss"
    xmlns="http://www.w3.org/2000/svg" width="30" height="23" viewBox="0 0 30 23" fill="none">
    <g clip-path="url(#clip0_549_13240)">
      <path fill-rule="evenodd" clip-rule="evenodd" d="M0 0.25H30V22.75H0V0.25Z" fill="#D52B1E"/>
      <path fill-rule="evenodd" clip-rule="evenodd" d="M7.96875 9.39062H22.0312V13.6094H7.96875V9.39062Z" fill="white"/>
      <path fill-rule="evenodd" clip-rule="evenodd" d="M12.8906 4.46875H17.1094V18.5312H12.8906V4.46875Z" fill="white"/>
    </g>
    <rect x="0.25" y="0.5" width="29.5" height="22" stroke="black" stroke-width="0.5"/>
    <defs>
      <clipPath id="clip0_549_13240">
        <rect y="0.25" width="30" height="22.5" fill="white"/>
      </clipPath>
    </defs>
  </svg>

</svg>