<!--
  IMPORTANT:
  1. Ensure each SVG element has a unique ID.
  2. Ensure each SVG element has a `viewBox` attribute.
  3. Remove the `width` and `height` attributes from each SVG element.
 -->

<svg width="0" height="0" class="hidden">
  <svg id="icon-filter" viewBox="0 0 24 24" fill="none" xmlns="http://www.w3.org/2000/svg">
    <g clip-path="url(#clip0_1_564)">
      <path d="M21 4V6H20L15 13.5V22H9V13.5L4 6H3V4H21ZM6.404 6L11 12.894V20H13V12.894L17.596 6H6.404Z" fill="#373737"/>
    </g>
    <defs>
      <clipPath id="clip0_1_564">
        <rect width="24" height="24" fill="white"/>
      </clipPath>
    </defs>
  </svg>

  <svg id="icon-phone-emergency" viewBox="0 0 24 24" fill="none" xmlns="http://www.w3.org/2000/svg">
    <g clip-path="url(#clip0_1_565)">
      <path d="M16.0225 4.57833L19.9678 11.6816C20.0391 11.81 20.0756 11.9547 20.0738 12.1015C20.072 12.2484 20.0319 12.3922 19.9575 12.5187C19.8831 12.6453 19.7769 12.7503 19.6495 12.8233C19.5221 12.8962 19.3778 12.9347 19.231 12.9348H10.8418C10.6948 12.935 10.5502 12.8967 10.4225 12.8237C10.2947 12.7508 10.1883 12.6457 10.1137 12.5189C10.0391 12.3922 9.99898 12.2481 9.99725 12.101C9.99551 11.9539 10.0323 11.809 10.1038 11.6805L14.056 4.57833C14.1534 4.40304 14.296 4.25699 14.4689 4.1553C14.6417 4.05362 14.8387 4 15.0392 4C15.2398 4 15.4367 4.05362 15.6096 4.1553C15.7825 4.25699 15.925 4.40304 16.0225 4.57833ZM15.0325 11.8098C15.1817 11.8098 15.3247 11.7506 15.4302 11.6451C15.5357 11.5396 15.595 11.3965 15.595 11.2473C15.595 11.0981 15.5357 10.9551 15.4302 10.8496C15.3247 10.7441 15.1817 10.6848 15.0325 10.6848C14.8833 10.6848 14.7402 10.7441 14.6347 10.8496C14.5292 10.9551 14.47 11.0981 14.47 11.2473C14.47 11.3965 14.5292 11.5396 14.6347 11.6451C14.7402 11.7506 14.8833 11.8098 15.0325 11.8098ZM14.47 6.18483V8.99733C14.47 9.14652 14.5292 9.28959 14.6347 9.39508C14.7402 9.50057 14.8833 9.55983 15.0325 9.55983C15.1817 9.55983 15.3247 9.50057 15.4302 9.39508C15.5357 9.28959 15.595 9.14652 15.595 8.99733V6.18483C15.595 6.03565 15.5357 5.89257 15.4302 5.78709C15.3247 5.6816 15.1817 5.62233 15.0325 5.62233C14.8833 5.62233 14.7402 5.6816 14.6347 5.78709C14.5292 5.89257 14.47 6.03565 14.47 6.18483ZM7.46235 6.69783C5.93797 7.16358 4.9401 8.43708 5.15497 9.85008C5.42212 11.5898 6.01525 13.2635 6.90322 14.7832C7.78405 16.3041 8.93725 17.6499 10.3052 18.7533C11.4212 19.65 13.0255 19.4283 14.1921 18.3393C14.3973 18.1479 14.522 17.8855 14.5406 17.6054C14.5592 17.3253 14.4704 17.0487 14.2922 16.8318L13.4012 15.7496C13.2587 15.5766 13.0678 15.4501 12.8529 15.3864C12.638 15.3227 12.409 15.3245 12.1952 15.3918L10.3131 15.9836C10.2204 16.0128 10.1217 16.0174 10.0267 15.9971C9.93167 15.9768 9.84352 15.9322 9.77085 15.8677L9.72585 15.8272C9.56176 15.6717 9.40413 15.5096 9.25335 15.3412C8.87957 14.9285 8.54933 14.4784 8.26785 13.998C7.87986 13.3167 7.59192 12.5832 7.41285 11.82L7.39935 11.7615C7.37974 11.6661 7.38518 11.5672 7.41515 11.4745C7.44512 11.3819 7.49859 11.2986 7.57035 11.2327L9.02385 9.89958C9.18903 9.74794 9.30514 9.5504 9.35726 9.33231C9.40937 9.11422 9.39513 8.88552 9.31635 8.67558L8.8281 7.37058C8.7288 7.10571 8.53225 6.88866 8.27849 6.76367C8.02473 6.63867 7.73286 6.61513 7.46235 6.69783ZM9.78547 10.7287L8.57947 11.8357C8.73774 12.393 8.9605 12.9298 9.24322 13.4355C9.5364 13.9352 9.89007 14.397 10.2962 14.8102L11.8588 14.3186C12.2864 14.184 12.7445 14.1802 13.1742 14.3077C13.6039 14.4352 13.9858 14.6881 14.2708 15.0341L15.1618 16.1163C15.5223 16.5544 15.7022 17.1134 15.6648 17.6795C15.6274 18.2456 15.3755 18.776 14.9605 19.1628C13.5092 20.5151 11.275 20.9741 9.60097 19.6297C8.12545 18.4401 6.88148 16.989 5.93122 15.3491C4.97218 13.7069 4.33172 11.8985 4.04347 10.0188C3.7206 7.89821 5.24047 6.20058 7.13385 5.62233C7.67816 5.45581 8.26548 5.5031 8.77614 5.75456C9.2868 6.00603 9.68236 6.44274 9.88222 6.97571L10.3705 8.28071C10.528 8.70059 10.5565 9.15797 10.4523 9.59416C10.3481 10.0303 10.1158 10.4254 9.78547 10.7287Z" fill="#373737"/>
    </g>
    <defs>
      <clipPath id="clip0_1_565">
        <rect width="24" height="24" fill="white"/>
      </clipPath>
    </defs>
  </svg>
</svg>